Fira Sans-Light.ufo
<glyph name="exclam" format="1">
  <advance width="234"/>
  <unicode hex="0021"/>
  <outline>
    <contour>
      <point x="116" y="680" type="line"/>
      <point x="116" y="188" type="line"/>
      <point x="118" y="188" type="line"/>
      <point x="118" y="680" type="line"/>
    </contour>
    <contour>
      <point x="113" y="10"/>
      <point x="110" y="7"/>
      <point x="110" y="3" type="curve" smooth="yes"/>
      <point x="110" y="-1"/>
      <point x="113" y="-4"/>
      <point x="117" y="-4" type="curve" smooth="yes"/>
      <point x="121" y="-4"/>
      <point x="124" y="-1"/>
      <point x="124" y="3" type="curve"/>
      <point x="124" y="7"/>
      <point x="121" y="10"/>
      <point x="117" y="10" type="curve" smooth="yes"/>
    </contour>
  </outline>
</glyph>
<glyph name="question" format="1">
  <advance width="448"/>
  <unicode hex="003F"/>
  <outline>
    <contour>
      <point x="167" y="690"/>
      <point x="115" y="663"/>
      <point x="70" y="610" type="curve"/>
      <point x="72" y="608" type="line"/>
      <point x="116" y="661"/>
      <point x="167" y="688"/>
      <point x="235" y="688" type="curve"/>
      <point x="317" y="688"/>
      <point x="376" y="634"/>
      <point x="376" y="556" type="curve"/>
      <point x="376" y="412"/>
      <point x="191" y="434"/>
      <point x="191" y="271" type="curve"/>
      <point x="191" y="188" type="line"/>
      <point x="193" y="188" type="line"/>
      <point x="193" y="271" type="line"/>
      <point x="193" y="432"/>
      <point x="378" y="412"/>
      <point x="378" y="556" type="curve"/>
      <point x="378" y="635"/>
      <point x="317" y="690"/>
      <point x="235" y="690" type="curve"/>
    </contour>
    <contour>
      <point x="188" y="10"/>
      <point x="185" y="7"/>
      <point x="185" y="3" type="curve" smooth="yes"/>
      <point x="185" y="-1"/>
      <point x="188" y="-4"/>
      <point x="192" y="-4" type="curve" smooth="yes"/>
      <point x="196" y="-4"/>
      <point x="199" y="-1"/>
      <point x="199" y="3" type="curve"/>
      <point x="199" y="7"/>
      <point x="196" y="10"/>
      <point x="192" y="10" type="curve" smooth="yes"/>
    </contour>
  </outline>
</glyph>
<glyph name="q" format="1">
  <advance width="572"/>
  <unicode hex="0071"/>
  <outline>
    <contour>
      <point x="445" y="-190" type="line"/>
      <point x="447" y="-190" type="line"/>
      <point x="447" y="517" type="line"/>
      <point x="445" y="517" type="line"/>
      <point x="445" y="424" type="line"/>
      <point x="445" y="421" type="line"/>
    </contour>
    <contour>
      <point x="156" y="527"/>
      <point x="85" y="417"/>
      <point x="85" y="257" type="curve" smooth="yes"/>
      <point x="85" y="88"/>
      <point x="159" y="-9"/>
      <point x="272" y="-9" type="curve" smooth="yes"/>
      <point x="365" y="-9"/>
      <point x="413" y="41"/>
      <point x="446" y="102" type="curve"/>
      <point x="446" y="106" type="line"/>
      <point x="411" y="42"/>
      <point x="364" y="-7"/>
      <point x="272" y="-7" type="curve" smooth="yes"/>
      <point x="160" y="-7"/>
      <point x="87" y="89"/>
      <point x="87" y="257" type="curve" smooth="yes"/>
      <point x="87" y="415"/>
      <point x="158" y="525"/>
      <point x="281" y="525" type="curve" smooth="yes"/>
      <point x="367" y="525"/>
      <point x="420" y="471"/>
      <point x="446" y="419" type="curve"/>
      <point x="446" y="423" type="line"/>
      <point x="421" y="472"/>
      <point x="368" y="527"/>
      <point x="281" y="527" type="curve" smooth="yes"/>
    </contour>
    <contour>
      <point x="289" y="517" type="move" name="top"/>
    </contour>
    <contour>
      <point x="289" y="-188" type="move" name="bottom"/>
    </contour>
  </outline>
</glyph>
<glyph name="Eth" format="1">
  <advance width="607"/>
  <unicode hex="00D0"/>
  <outline>
    <contour>
      <point x="124" y="354" type="line"/>
      <point x="30" y="354" type="line"/>
      <point x="30" y="352" type="line"/>
      <point x="322" y="352" type="line"/>
      <point x="322" y="354" type="line"/>
    </contour>
    <component base="D" xOffset="-6"/>
  </outline>
</glyph>
<glyph name="Lslash" format="1">
  <advance width="447"/>
  <unicode hex="0141"/>
  <outline>
    <contour>
      <point x="132" y="327" type="line"/>
      <point x="52" y="278" type="line"/>
      <point x="53" y="276" type="line"/>
      <point x="342" y="454" type="line"/>
      <point x="341" y="456" type="line"/>
    </contour>
    <component base="L" xOffset="2"/>
  </outline>
</glyph>
<glyph name="Tbar" format="1">
  <advance width="472"/>
  <unicode hex="0166"/>
  <outline>
    <contour>
      <point x="111" y="376" type="line"/>
      <point x="111" y="374" type="line"/>
      <point x="235" y="374" type="line"/>
      <point x="359" y="374" type="line"/>
      <point x="359" y="376" type="line"/>
    </contour>
    <component base="T"/>
  </outline>
</glyph>
<glyph name="uni018D" format="1">
  <advance width="554"/>
  <unicode hex="018D"/>
  <outline>
    <contour>
      <point x="422" y="-20"/>
      <point x="388" y="10"/>
      <point x="285" y="50" type="curve" smooth="yes"/>
      <point x="134" y="108"/>
      <point x="82" y="163"/>
      <point x="82" y="301" type="curve" smooth="yes"/>
      <point x="82" y="443"/>
      <point x="158" y="524"/>
      <point x="279" y="524" type="curve" smooth="yes"/>
      <point x="397" y="524"/>
      <point x="472" y="446"/>
      <point x="472" y="299" type="curve" smooth="yes"/>
      <point x="472" y="161"/>
      <point x="391" y="84"/>
      <point x="282" y="50" type="curve"/>
      <point x="284" y="49" type="line"/>
      <point x="394" y="83"/>
      <point x="474" y="161"/>
      <point x="474" y="299" type="curve" smooth="yes"/>
      <point x="474" y="447"/>
      <point x="398" y="526"/>
      <point x="279" y="526" type="curve" smooth="yes"/>
      <point x="157" y="526"/>
      <point x="80" y="444"/>
      <point x="80" y="301" type="curve" smooth="yes"/>
      <point x="80" y="161"/>
      <point x="133" y="107"/>
      <point x="282" y="49" type="curve" smooth="yes"/>
      <point x="385" y="9"/>
      <point x="420" y="-20"/>
      <point x="420" y="-83" type="curve" smooth="yes"/>
      <point x="420" y="-149"/>
      <point x="364" y="-198"/>
      <point x="275" y="-198" type="curve" smooth="yes"/>
      <point x="220" y="-198"/>
      <point x="178" y="-184"/>
      <point x="137" y="-154" type="curve"/>
      <point x="135" y="-155" type="line"/>
      <point x="178" y="-186"/>
      <point x="220" y="-200"/>
      <point x="275" y="-200" type="curve" smooth="yes"/>
      <point x="365" y="-200"/>
      <point x="422" y="-150"/>
      <point x="422" y="-83" type="curve" smooth="yes"/>
    </contour>
    <contour>
      <point x="277" y="517" type="move" name="top"/>
    </contour>
    <contour>
      <point x="277" y="-188" type="move" name="bottom"/>
    </contour>
  </outline>
</glyph>
<glyph name="uni0222" format="1">
  <advance width="627"/>
  <unicode hex="0222"/>
  <outline>
    <contour>
      <point x="173" y="386"/>
      <point x="85" y="302"/>
      <point x="85" y="185" type="curve" smooth="yes"/>
      <point x="85" y="74"/>
      <point x="169" y="-9"/>
      <point x="313" y="-9" type="curve" smooth="yes"/>
      <point x="460" y="-9"/>
      <point x="542" y="75"/>
      <point x="542" y="189" type="curve" smooth="yes"/>
      <point x="542" y="308"/>
      <point x="459" y="386"/>
      <point x="313" y="386" type="curve" smooth="yes"/>
    </contour>
    <contour>
      <point x="458" y="384"/>
      <point x="540" y="306"/>
      <point x="540" y="189" type="curve" smooth="yes"/>
      <point x="540" y="77"/>
      <point x="459" y="-7"/>
      <point x="313" y="-7" type="curve" smooth="yes"/>
      <point x="170" y="-7"/>
      <point x="87" y="76"/>
      <point x="87" y="185" type="curve" smooth="yes"/>
      <point x="87" y="300"/>
      <point x="174" y="384"/>
      <point x="313" y="384" type="curve" smooth="yes"/>
    </contour>
    <contour>
      <point x="489" y="680" type="line"/>
      <point x="489" y="549" type="line" smooth="yes"/>
      <point x="489" y="469"/>
      <point x="452" y="386"/>
      <point x="314" y="386" type="curve" smooth="yes"/>
      <point x="175" y="386"/>
      <point x="139" y="467"/>
      <point x="139" y="549" type="curve" smooth="yes"/>
      <point x="139" y="680" type="line"/>
      <point x="137" y="680" type="line"/>
      <point x="137" y="549" type="line" smooth="yes"/>
      <point x="137" y="468"/>
      <point x="173" y="384"/>
      <point x="314" y="384" type="curve" smooth="yes"/>
      <point x="453" y="384"/>
      <point x="491" y="466"/>
      <point x="491" y="549" type="curve" smooth="yes"/>
      <point x="491" y="680" type="line"/>
    </contour>
    <contour>
      <point x="314" y="680" type="move" name="top"/>
    </contour>
    <contour>
      <point x="314" y="0" type="move" name="bottom"/>
    </contour>
  </outline>
</glyph>
<glyph name="uni0239" format="1">
  <advance width="847"/>
  <unicode hex="0239"/>
  <outline>
    <contour>
      <point x="156" y="527"/>
      <point x="85" y="416"/>
      <point x="85" y="257" type="curve" smooth="yes"/>
      <point x="85" y="88"/>
      <point x="159" y="-9"/>
      <point x="262" y="-9" type="curve" smooth="yes"/>
      <point x="345" y="-9"/>
      <point x="393" y="41"/>
      <point x="426" y="102" type="curve"/>
      <point x="426" y="106" type="line"/>
      <point x="391" y="42"/>
      <point x="344" y="-7"/>
      <point x="262" y="-7" type="curve" smooth="yes"/>
      <point x="160" y="-7"/>
      <point x="87" y="89"/>
      <point x="87" y="257" type="curve" smooth="yes"/>
      <point x="87" y="415"/>
      <point x="158" y="525"/>
      <point x="273" y="525" type="curve" smooth="yes"/>
      <point x="349" y="525"/>
      <point x="391" y="480"/>
      <point x="426" y="417" type="curve"/>
      <point x="426" y="421" type="line"/>
      <point x="392" y="481"/>
      <point x="350" y="527"/>
      <point x="273" y="527" type="curve" smooth="yes"/>
    </contour>
    <contour>
      <point x="425" y="517" type="line"/>
      <point x="425" y="421" type="line"/>
      <point x="425" y="420" type="line"/>
      <point x="425" y="-190" type="line"/>
      <point x="427" y="-190" type="line"/>
      <point x="427" y="419" type="line"/>
      <point x="427" y="421" type="line"/>
      <point x="427" y="517" type="line"/>
    </contour>
    <contour>
      <point x="522" y="527"/>
      <point x="469" y="481"/>
      <point x="426" y="420" type="curve"/>
      <point x="426" y="417" type="line"/>
      <point x="472" y="482"/>
      <point x="524" y="525"/>
      <point x="595" y="525" type="curve" smooth="yes"/>
      <point x="700" y="525"/>
      <point x="760" y="429"/>
      <point x="760" y="264" type="curve" smooth="yes"/>
      <point x="760" y="97"/>
      <point x="699" y="-7"/>
      <point x="592" y="-7" type="curve" smooth="yes"/>
      <point x="523" y="-7"/>
      <point x="467" y="37"/>
      <point x="426" y="106" type="curve"/>
      <point x="426" y="102" type="line"/>
      <point x="466" y="36"/>
      <point x="522" y="-9"/>
      <point x="592" y="-9" type="curve" smooth="yes"/>
      <point x="700" y="-9"/>
      <point x="762" y="96"/>
      <point x="762" y="264" type="curve" smooth="yes"/>
      <point x="762" y="431"/>
      <point x="700" y="527"/>
      <point x="595" y="527" type="curve" smooth="yes"/>
    </contour>
    <contour>
      <point x="426" y="517" type="move" name="top"/>
    </contour>
    <contour>
      <point x="426" y="-188" type="move" name="bottom"/>
    </contour>
  </outline>
</glyph>
<glyph name="uni0244" format="1">
  <advance width="670"/>
  <unicode hex="0244"/>
  <outline>
    <contour>
      <point x="532" y="528" type="line"/>
      <point x="85" y="528" type="line"/>
      <point x="85" y="526" type="line"/>
      <point x="138" y="526" type="line"/>
      <point x="585" y="526" type="line"/>
      <point x="585" y="528" type="line"/>
    </contour>
    <component base="U" xOffset="18"/>
  </outline>
</glyph>
<glyph name="uni024B" format="1">
  <advance width="572"/>
  <unicode hex="024B"/>
  <outline>
    <contour>
      <point x="364" y="-9"/>
      <point x="411" y="40"/>
      <point x="446" y="102" type="curve"/>
      <point x="446" y="106" type="line"/>
      <point x="411" y="42"/>
      <point x="364" y="-7"/>
      <point x="272" y="-7" type="curve" smooth="yes"/>
      <point x="160" y="-7"/>
      <point x="87" y="89"/>
      <point x="87" y="257" type="curve" smooth="yes"/>
      <point x="87" y="415"/>
      <point x="158" y="525"/>
      <point x="281" y="525" type="curve" smooth="yes"/>
      <point x="367" y="525"/>
      <point x="420" y="471"/>
      <point x="446" y="419" type="curve"/>
      <point x="446" y="423" type="line"/>
      <point x="421" y="472"/>
      <point x="368" y="527"/>
      <point x="281" y="527" type="curve" smooth="yes"/>
      <point x="156" y="527"/>
      <point x="85" y="417"/>
      <point x="85" y="257" type="curve" smooth="yes"/>
      <point x="85" y="87"/>
      <point x="159" y="-9"/>
      <point x="272" y="-9" type="curve" smooth="yes"/>
    </contour>
    <contour>
      <point x="519" y="-192"/>
      <point x="533" y="-189"/>
      <point x="545" y="-184" type="curve"/>
      <point x="545" y="-182" type="line"/>
      <point x="533" y="-187"/>
      <point x="519" y="-190"/>
      <point x="504" y="-190" type="curve" smooth="yes"/>
      <point x="465" y="-190"/>
      <point x="447" y="-162"/>
      <point x="447" y="-119" type="curve"/>
      <point x="447" y="1" type="line"/>
      <point x="445" y="1" type="line"/>
      <point x="445" y="-119" type="line"/>
      <point x="445" y="-164"/>
      <point x="464" y="-192"/>
      <point x="504" y="-192" type="curve" smooth="yes"/>
    </contour>
    <contour>
      <point x="447" y="0" type="line"/>
      <point x="447" y="517" type="line"/>
      <point x="445" y="517" type="line"/>
      <point x="445" y="424" type="line"/>
      <point x="445" y="421" type="line"/>
      <point x="445" y="0" type="line"/>
    </contour>
    <contour>
      <point x="289" y="517" type="move" name="top"/>
    </contour>
    <contour>
      <point x="289" y="-188" type="move" name="bottom"/>
    </contour>
  </outline>
</glyph>
<glyph name="uni0270" format="1">
  <advance width="845"/>
  <unicode hex="0270"/>
  <outline>
    <contour>
      <point x="718" y="-190" type="line"/>
      <point x="720" y="-190" type="line"/>
      <point x="720" y="128" type="line"/>
      <point x="718" y="128" type="line"/>
    </contour>
    <component base="uni026F"/>
    <contour>
      <point x="424" y="-188" type="move" name="bottom"/>
    </contour>
  </outline>
</glyph>
<glyph name="uni0271" format="1">
  <advance width="845"/>
  <unicode hex="0271"/>
  <outline>
    <contour>
      <point x="691" y="-192"/>
      <point x="725" y="-159"/>
      <point x="725" y="-97" type="curve" smooth="yes"/>
      <point x="725" y="1" type="line"/>
      <point x="723" y="1" type="line"/>
      <point x="723" y="-97" type="line" smooth="yes"/>
      <point x="723" y="-158"/>
      <point x="690" y="-190"/>
      <point x="641" y="-190" type="curve" smooth="yes"/>
      <point x="604" y="-190"/>
      <point x="582" y="-178"/>
      <point x="563" y="-162" type="curve"/>
      <point x="562" y="-164" type="line"/>
      <point x="580" y="-179"/>
      <point x="603" y="-192"/>
      <point x="641" y="-192" type="curve" smooth="yes"/>
    </contour>
    <component base="m"/>
    <contour>
      <point x="424" y="-188" type="move" name="bottom"/>
    </contour>
  </outline>
</glyph>
<glyph name="uni027D" format="1">
  <advance width="361"/>
  <unicode hex="027D"/>
  <outline>
    <component base="r"/>
    <component base="hookHELPER" xOffset="331" xScale="-1"/>
    <contour>
      <point x="209" y="-188" type="move" name="bottom"/>
    </contour>
  </outline>
</glyph>
<glyph name="uni0281" format="1">
  <advance width="520"/>
  <unicode hex="0281"/>
  <outline>
    <contour>
      <point x="372" y="0"/>
      <point x="420" y="52"/>
      <point x="420" y="139" type="curve" smooth="yes"/>
      <point x="420" y="230"/>
      <point x="355" y="265"/>
      <point x="283" y="267" type="curve"/>
      <point x="126" y="267" type="line"/>
      <point x="126" y="265" type="line"/>
      <point x="277" y="265" type="line" smooth="yes"/>
      <point x="353" y="265"/>
      <point x="418" y="228"/>
      <point x="418" y="139" type="curve" smooth="yes"/>
      <point x="418" y="53"/>
      <point x="371" y="2"/>
      <point x="233" y="2" type="curve" smooth="yes"/>
      <point x="127" y="2" type="line"/>
      <point x="127" y="517" type="line"/>
      <point x="125" y="517" type="line"/>
      <point x="125" y="0" type="line"/>
      <point x="233" y="0" type="line" smooth="yes"/>
    </contour>
    <contour>
      <point x="440" y="517" type="line"/>
      <point x="437" y="517" type="line"/>
      <point x="281" y="266" type="line"/>
      <point x="284" y="266" type="line"/>
    </contour>
    <contour>
      <point x="255" y="517" type="move" name="top"/>
    </contour>
    <contour>
      <point x="255" y="0" type="move" name="bottom"/>
    </contour>
  </outline>
</glyph>
<glyph name="uni0283" format="1">
  <advance width="252"/>
  <unicode hex="0283"/>
  <outline>
    <contour>
      <point x="125" y="517" type="line"/>
      <point x="125" y="0" type="line"/>
      <point x="127" y="0" type="line"/>
      <point x="127" y="517" type="line"/>
    </contour>
    <component base="hookaboveHELPER2" xOffset="82"/>
    <component base="hookHELPER" xOffset="-79"/>
    <contour>
      <point x="216" y="727" type="move" name="top"/>
    </contour>
    <contour>
      <point x="43" y="-188" type="move" name="bottom"/>
    </contour>
  </outline>
</glyph>
<glyph name="uni02A0" format="1">
  <advance width="572"/>
  <unicode hex="02A0"/>
  <outline>
    <contour>
      <point x="365" y="-9"/>
      <point x="413" y="41"/>
      <point x="446" y="102" type="curve"/>
      <point x="446" y="106" type="line"/>
      <point x="411" y="42"/>
      <point x="364" y="-7"/>
      <point x="272" y="-7" type="curve" smooth="yes"/>
      <point x="160" y="-7"/>
      <point x="87" y="89"/>
      <point x="87" y="257" type="curve" smooth="yes"/>
      <point x="87" y="415"/>
      <point x="158" y="525"/>
      <point x="281" y="525" type="curve" smooth="yes"/>
      <point x="367" y="525"/>
      <point x="420" y="471"/>
      <point x="446" y="419" type="curve"/>
      <point x="446" y="423" type="line"/>
      <point x="421" y="472"/>
      <point x="368" y="527"/>
      <point x="281" y="527" type="curve" smooth="yes"/>
      <point x="156" y="527"/>
      <point x="85" y="417"/>
      <point x="85" y="257" type="curve" smooth="yes"/>
      <point x="85" y="88"/>
      <point x="159" y="-9"/>
      <point x="272" y="-9" type="curve" smooth="yes"/>
    </contour>
    <contour>
      <point x="447" y="517" type="line"/>
      <point x="445" y="517" type="line"/>
      <point x="445" y="-190" type="line"/>
      <point x="447" y="-190" type="line"/>
    </contour>
    <component base="hookaboveHELPER2" xOffset="402"/>
    <contour>
      <point x="289" y="727" type="move" name="top"/>
    </contour>
    <contour>
      <point x="289" y="-188" type="move" name="bottom"/>
    </contour>
  </outline>
</glyph>
<glyph name="gravecomb" format="1">
  <advance width="228"/>
  <unicode hex="0300"/>
  <outline>
    <contour>
      <point x="30" y="744" type="line"/>
      <point x="197" y="662" type="line"/>
      <point x="198" y="664" type="line"/>
      <point x="31" y="746" type="line"/>
    </contour>
    <contour>
      <point x="116" y="746" type="move" name="top"/>
    </contour>
    <contour>
      <point x="109" y="517" type="move" name="_top"/>
    </contour>
  </outline>
</glyph>
<glyph name="uni030F" format="1">
  <advance width="229"/>
  <unicode hex="030F"/>
  <outline>
    <contour>
      <point x="30" y="784" type="line"/>
      <point x="96" y="661" type="line"/>
      <point x="98" y="662" type="line"/>
      <point x="32" y="785" type="line"/>
    </contour>
    <contour>
      <point x="136" y="781" type="line"/>
      <point x="197" y="663" type="line"/>
      <point x="199" y="664" type="line"/>
      <point x="138" y="782" type="line"/>
    </contour>
    <contour>
      <point x="117" y="785" type="move" name="top"/>
    </contour>
    <contour>
      <point x="145" y="517" type="move" name="_top"/>
    </contour>
  </outline>
</glyph>
<glyph name="uni0312" format="1">
  <advance width="87"/>
  <unicode hex="0312"/>
  <outline>
    <component base="uni0326" xOffset="87" yOffset="490" xScale="-1" yScale="-1"/>
    <contour>
      <point x="43" y="517" type="move" name="_top"/>
    </contour>
  </outline>
</glyph>
<glyph name="uni031B" format="1">
  <advance width="124"/>
  <unicode hex="031B"/>
  <outline>
    <contour>
      <point x="71" y="465"/>
      <point x="94" y="484"/>
      <point x="94" y="524" type="curve" smooth="yes"/>
      <point x="94" y="553"/>
      <point x="88" y="576"/>
      <point x="80" y="596" type="curve"/>
      <point x="78" y="596" type="line"/>
      <point x="86" y="576"/>
      <point x="92" y="553"/>
      <point x="92" y="524" type="curve" smooth="yes"/>
      <point x="92" y="485"/>
      <point x="70" y="467"/>
      <point x="30" y="464" type="curve"/>
      <point x="31" y="462" type="line"/>
    </contour>
    <contour>
      <point x="41" y="517" type="move" name="_topright"/>
    </contour>
    <contour>
      <point x="93" y="517" type="move" name="topright"/>
    </contour>
  </outline>
</glyph>
<glyph name="uni0326" format="1">
  <advance width="87"/>
  <unicode hex="0326"/>
  <outline>
    <contour>
      <point x="49" y="-107"/>
      <point x="47" y="-109"/>
      <point x="47" y="-112" type="curve" smooth="yes"/>
      <point x="47" y="-115"/>
      <point x="49" y="-117"/>
      <point x="53" y="-117" type="curve"/>
      <point x="30" y="-239" type="line"/>
      <point x="31" y="-239" type="line"/>
      <point x="56" y="-120" type="line" smooth="yes"/>
      <point x="57" y="-115"/>
      <point x="57" y="-114"/>
      <point x="57" y="-112" type="curve"/>
      <point x="57" y="-109"/>
      <point x="55" y="-107"/>
      <point x="52" y="-107" type="curve" smooth="yes"/>
    </contour>
    <contour>
      <point x="52" y="0" type="move" name="_bottom"/>
    </contour>
  </outline>
</glyph>
<glyph name="uni0328" format="1">
  <advance width="197"/>
  <unicode hex="0328"/>
  <outline>
    <contour>
      <point x="105" y="-21"/>
      <point x="30" y="-57"/>
      <point x="30" y="-124" type="curve" smooth="yes"/>
      <point x="30" y="-169"/>
      <point x="60" y="-194"/>
      <point x="107" y="-194" type="curve" smooth="yes"/>
      <point x="126" y="-194"/>
      <point x="138" y="-192"/>
      <point x="160" y="-186" type="curve"/>
      <point x="160" y="-184" type="line"/>
      <point x="138" y="-190"/>
      <point x="125" y="-192"/>
      <point x="107" y="-192" type="curve" smooth="yes"/>
      <point x="61" y="-192"/>
      <point x="32" y="-168"/>
      <point x="32" y="-124" type="curve" smooth="yes"/>
      <point x="32" y="-57"/>
      <point x="111" y="-20"/>
      <point x="167" y="0" type="curve"/>
      <point x="166" y="1" type="line"/>
    </contour>
    <contour>
      <point x="177" y="0" type="move" name="_ogonek"/>
    </contour>
  </outline>
</glyph>
<glyph name="uni032C" format="1">
  <advance width="278"/>
  <unicode hex="032C"/>
  <outline>
    <component base="uni030C.case" yOffset="-930"/>
    <contour>
      <point x="139" y="0" type="move" name="_bottom"/>
    </contour>
    <contour>
      <point x="139" y="-165" type="move" name="bottom"/>
    </contour>
  </outline>
</glyph>
<glyph name="uni0373" format="1">
  <advance width="454"/>
  <unicode hex="0373"/>
  <outline>
    <contour>
      <point x="221" y="516" type="line"/>
      <point x="221" y="-191" type="line"/>
      <point x="223" y="-191" type="line"/>
      <point x="223" y="516" type="line"/>
    </contour>
    <contour>
      <point x="31" y="513"/>
      <point x="44" y="515"/>
      <point x="76" y="515" type="curve" smooth="yes"/>
      <point x="432" y="515" type="line"/>
      <point x="432" y="517" type="line"/>
      <point x="76" y="517" type="line" smooth="yes"/>
      <point x="44" y="517"/>
      <point x="30" y="515"/>
      <point x="15" y="509" type="curve"/>
      <point x="16" y="507" type="line"/>
    </contour>
    <contour>
      <point x="227" y="517" type="move" name="top"/>
    </contour>
    <contour>
      <point x="227" y="-188" type="move" name="bottom"/>
    </contour>
  </outline>
</glyph>
<glyph name="uni03D2" format="1">
  <advance width="505"/>
  <unicode hex="03D2"/>
  <outline>
    <component base="uni01B3"/>
    <contour>
      <point x="15" y="680" type="move" name="topleft"/>
    </contour>
  </outline>
</glyph>
<glyph name="uni03FC" format="1">
  <advance width="556"/>
  <unicode hex="03FC"/>
  <outline>
    <contour>
      <point x="40" y="-92" type="line"/>
      <point x="115" y="-92" type="line"/>
      <point x="297" y="-92" type="line"/>
      <point x="297" y="-90" type="line"/>
      <point x="40" y="-90" type="line"/>
    </contour>
    <component base="rho"/>
  </outline>
</glyph>
<glyph name="uni03FD" format="1">
  <advance width="559"/>
  <unicode hex="03FD"/>
  <outline>
    <contour>
      <point x="133" y="690"/>
      <point x="81" y="664"/>
      <point x="35" y="633" type="curve"/>
      <point x="36" y="631" type="line"/>
      <point x="82" y="662"/>
      <point x="134" y="688"/>
      <point x="221" y="688" type="curve" smooth="yes"/>
      <point x="376" y="688"/>
      <point x="472" y="575"/>
      <point x="472" y="339" type="curve" smooth="yes"/>
      <point x="472" y="115"/>
      <point x="369" y="-7"/>
      <point x="213" y="-7" type="curve" smooth="yes"/>
      <point x="122" y="-7"/>
      <point x="69" y="21"/>
      <point x="27" y="52" type="curve"/>
      <point x="26" y="50" type="line"/>
      <point x="68" y="19"/>
      <point x="121" y="-9"/>
      <point x="213" y="-9" type="curve" smooth="yes"/>
      <point x="371" y="-9"/>
      <point x="474" y="114"/>
      <point x="474" y="339" type="curve" smooth="yes"/>
      <point x="474" y="577"/>
      <point x="378" y="690"/>
      <point x="221" y="690" type="curve" smooth="yes"/>
    </contour>
    <contour>
      <point x="206" y="341" type="move" name="center"/>
    </contour>
    <contour>
      <point x="275" y="0" type="move" name="bottom"/>
    </contour>
    <contour>
      <point x="275" y="680" type="move" name="top"/>
    </contour>
  </outline>
</glyph>
<glyph name="uni040A" format="1">
  <advance width="921"/>
  <unicode hex="040A"/>
  <outline>
    <contour>
      <point x="130" y="680" type="line"/>
      <point x="130" y="0" type="line"/>
      <point x="132" y="0" type="line"/>
      <point x="132" y="377" type="line"/>
      <point x="513" y="377" type="line"/>
      <point x="513" y="379" type="line"/>
      <point x="132" y="379" type="line"/>
      <point x="132" y="680" type="line"/>
    </contour>
    <contour>
      <point x="512" y="680" type="line"/>
      <point x="512" y="0" type="line"/>
      <point x="660" y="0" type="line" smooth="yes"/>
      <point x="781" y="0"/>
      <point x="861" y="67"/>
      <point x="861" y="197" type="curve" smooth="yes"/>
      <point x="861" y="319"/>
      <point x="783" y="379"/>
      <point x="656" y="379" type="curve" smooth="yes"/>
      <point x="513" y="379" type="line"/>
      <point x="513" y="377" type="line"/>
      <point x="656" y="377" type="line" smooth="yes"/>
      <point x="782" y="377"/>
      <point x="859" y="317"/>
      <point x="859" y="197" type="curve" smooth="yes"/>
      <point x="859" y="69"/>
      <point x="781" y="2"/>
      <point x="660" y="2" type="curve" smooth="yes"/>
      <point x="514" y="2" type="line"/>
      <point x="514" y="680" type="line"/>
    </contour>
    <contour>
      <point x="461" y="680" type="move" name="top"/>
    </contour>
    <contour>
      <point x="461" y="0" type="move" name="bottom"/>
    </contour>
  </outline>
</glyph>
<glyph name="uni042D" format="1">
  <advance width="502"/>
  <unicode hex="042D"/>
  <outline>
    <contour>
      <point x="135" y="690"/>
      <point x="86" y="666"/>
      <point x="32" y="624" type="curve"/>
      <point x="33" y="622" type="line"/>
      <point x="87" y="664"/>
      <point x="136" y="688"/>
      <point x="212" y="688" type="curve" smooth="yes"/>
      <point x="342" y="688"/>
      <point x="415" y="590"/>
      <point x="415" y="357" type="curve" smooth="yes"/>
      <point x="415" y="356" type="line" smooth="yes"/>
      <point x="415" y="122"/>
      <point x="350" y="-7"/>
      <point x="203" y="-7" type="curve"/>
      <point x="123" y="-7"/>
      <point x="75" y="24"/>
      <point x="28" y="63" type="curve"/>
      <point x="26" y="61" type="line"/>
      <point x="74" y="22"/>
      <point x="122" y="-9"/>
      <point x="203" y="-9" type="curve"/>
      <point x="352" y="-9"/>
      <point x="417" y="121"/>
      <point x="417" y="357" type="curve" smooth="yes"/>
      <point x="417" y="591"/>
      <point x="343" y="690"/>
      <point x="212" y="690" type="curve" smooth="yes"/>
    </contour>
    <contour>
      <point x="114" y="358" type="line"/>
      <point x="114" y="356" type="line"/>
      <point x="416" y="356" type="line"/>
      <point x="416" y="358" type="line"/>
    </contour>
    <contour>
      <point x="202" y="680" type="move" name="top"/>
    </contour>
    <contour>
      <point x="240" y="0" type="move" name="bottom"/>
    </contour>
  </outline>
</glyph>
<glyph name="uni0434" format="1">
  <advance width="538"/>
  <unicode hex="0434"/>
  <outline>
    <contour>
      <point x="44" y="1" type="line"/>
      <point x="97" y="35"/>
      <point x="124" y="88"/>
      <point x="136" y="266" type="curve" smooth="yes"/>
      <point x="153" y="515" type="line"/>
      <point x="411" y="515" type="line"/>
      <point x="411" y="2" type="line"/>
      <point x="42" y="2" type="line"/>
      <point x="42" y="0" type="line"/>
      <point x="413" y="0" type="line"/>
      <point x="413" y="517" type="line"/>
      <point x="151" y="517" type="line"/>
      <point x="134" y="266" type="line" smooth="yes"/>
      <point x="122" y="87"/>
      <point x="94" y="36"/>
      <point x="42" y="2" type="curve"/>
    </contour>
    <component base="descStraightcy" xOffset="393"/>
    <component base="descStraightcy" xOffset="80" xScale="-1"/>
    <contour>
      <point x="282" y="517" type="move" name="top"/>
    </contour>
    <contour>
      <point x="239" y="-188" type="move" name="bottom"/>
    </contour>
  </outline>
</glyph>
<glyph name="uni044A" format="1">
  <advance width="571"/>
  <unicode hex="044A"/>
  <outline>
    <contour>
      <point x="206" y="517" type="line"/>
      <point x="15" y="517" type="line"/>
      <point x="15" y="515" type="line"/>
      <point x="204" y="515" type="line"/>
    </contour>
    <component base="uni044C" xOffset="79"/>
  </outline>
</glyph>
<glyph name="uni044D" format="1">
  <advance width="465"/>
  <unicode hex="044D"/>
  <outline>
    <contour>
      <point x="153" y="527"/>
      <point x="108" y="506"/>
      <point x="70" y="474" type="curve"/>
      <point x="71" y="472" type="line"/>
      <point x="108" y="504"/>
      <point x="153" y="525"/>
      <point x="212" y="525" type="curve" smooth="yes"/>
      <point x="318" y="525"/>
      <point x="383" y="452"/>
      <point x="383" y="269" type="curve"/>
      <point x="383" y="268" type="line"/>
      <point x="383" y="96"/>
      <point x="323" y="-9"/>
      <point x="200" y="-9" type="curve" smooth="yes"/>
      <point x="136" y="-9"/>
      <point x="89" y="19"/>
      <point x="56" y="51" type="curve"/>
      <point x="55" y="49" type="line"/>
      <point x="88" y="17"/>
      <point x="136" y="-11"/>
      <point x="200" y="-11" type="curve" smooth="yes"/>
      <point x="323" y="-11"/>
      <point x="385" y="92"/>
      <point x="385" y="269" type="curve" smooth="yes"/>
      <point x="385" y="454"/>
      <point x="319" y="527"/>
      <point x="212" y="527" type="curve" smooth="yes"/>
    </contour>
    <contour>
      <point x="122" y="270" type="line"/>
      <point x="122" y="268" type="line"/>
      <point x="384" y="268" type="line"/>
      <point x="384" y="270" type="line"/>
    </contour>
    <contour>
      <point x="211" y="517" type="move" name="top"/>
    </contour>
    <contour>
      <point x="233" y="0" type="move" name="bottom"/>
    </contour>
  </outline>
</glyph>
<glyph name="uni044F" format="1">
  <advance width="530"/>
  <unicode hex="044F"/>
  <outline>
    <contour>
      <point x="148" y="517"/>
      <point x="94" y="465"/>
      <point x="94" y="374" type="curve" smooth="yes"/>
      <point x="94" y="298"/>
      <point x="146" y="244"/>
      <point x="217" y="239" type="curve"/>
      <point x="218" y="239" type="line"/>
      <point x="404" y="239" type="line"/>
      <point x="404" y="241" type="line"/>
      <point x="224" y="241" type="line" smooth="yes"/>
      <point x="160" y="241"/>
      <point x="96" y="289"/>
      <point x="96" y="374" type="curve" smooth="yes"/>
      <point x="96" y="464"/>
      <point x="149" y="515"/>
      <point x="266" y="515" type="curve"/>
      <point x="403" y="515" type="line"/>
      <point x="403" y="0" type="line"/>
      <point x="405" y="0" type="line"/>
      <point x="405" y="517" type="line"/>
      <point x="266" y="517" type="line"/>
    </contour>
    <contour>
      <point x="80" y="0" type="line"/>
      <point x="82" y="0" type="line"/>
      <point x="219" y="240" type="line"/>
      <point x="217" y="240" type="line"/>
    </contour>
    <contour>
      <point x="266" y="517" type="move" name="top"/>
    </contour>
    <contour>
      <point x="266" y="0" type="move" name="bottom"/>
    </contour>
  </outline>
</glyph>
<glyph name="uni0493" format="1">
  <advance width="415"/>
  <unicode hex="0493"/>
  <outline>
    <contour>
      <point x="125" y="293" type="line"/>
      <point x="58" y="293" type="line"/>
      <point x="58" y="291" type="line"/>
      <point x="266" y="291" type="line"/>
      <point x="266" y="293" type="line"/>
    </contour>
    <component base="uni0433"/>
  </outline>
</glyph>
<glyph name="uni04A0" format="1">
  <advance width="637"/>
  <unicode hex="04A0"/>
  <outline>
    <contour>
      <point x="237" y="680" type="line"/>
      <point x="20" y="680" type="line"/>
      <point x="20" y="678" type="line"/>
      <point x="235" y="678" type="line"/>
    </contour>
    <component base="uni041A" xOffset="105"/>
  </outline>
</glyph>
<glyph name="uni04A1" format="1">
  <advance width="508"/>
  <unicode hex="04A1"/>
  <outline>
    <contour>
      <point x="167" y="517" type="line"/>
      <point x="15" y="517" type="line"/>
      <point x="15" y="515" type="line"/>
      <point x="165" y="515" type="line"/>
    </contour>
    <component base="uni043A" xOffset="40"/>
  </outline>
</glyph>
<glyph name="uni04A4" format="1">
  <advance width="759"/>
  <unicode hex="04A4"/>
  <outline>
    <contour>
      <point x="524" y="678" type="line"/>
      <point x="739" y="678" type="line"/>
      <point x="739" y="680" type="line"/>
      <point x="522" y="680" type="line"/>
    </contour>
    <component base="H"/>
  </outline>
</glyph>
<glyph name="uni04B0" format="1">
  <advance width="479"/>
  <unicode hex="04B0"/>
  <outline>
    <contour>
      <point x="121" y="272" type="line"/>
      <point x="121" y="270" type="line"/>
      <point x="239" y="270" type="line"/>
      <point x="241" y="270" type="line"/>
      <point x="359" y="270" type="line"/>
      <point x="359" y="272" type="line"/>
    </contour>
    <component base="Y"/>
  </outline>
</glyph>
<glyph name="uni04B4" format="1">
  <advance width="755"/>
  <unicode hex="04B4"/>
  <outline>
    <contour>
      <point x="20" y="680" type="line"/>
      <point x="20" y="678" type="line"/>
      <point x="235" y="678" type="line"/>
      <point x="237" y="678" type="line"/>
      <point x="452" y="678" type="line"/>
      <point x="452" y="680" type="line"/>
    </contour>
    <contour>
      <point x="625" y="680" type="line"/>
      <point x="623" y="680" type="line"/>
      <point x="623" y="2" type="line"/>
      <point x="237" y="2" type="line"/>
      <point x="237" y="680" type="line"/>
      <point x="235" y="680" type="line"/>
      <point x="235" y="0" type="line"/>
      <point x="625" y="0" type="line"/>
    </contour>
    <component base="descStraightcy.case" xOffset="615"/>
    <contour>
      <point x="383" y="680" type="move" name="top"/>
    </contour>
    <contour>
      <point x="383" y="-188" type="move" name="bottom"/>
    </contour>
    <contour>
      <point x="635" y="0" type="move" name="bottomright"/>
    </contour>
  </outline>
</glyph>
<glyph name="uni04B8" format="1">
  <advance width="566"/>
  <unicode hex="04B8"/>
  <outline>
    <contour>
      <point x="246" y="512" type="line"/>
      <point x="246" y="111" type="line"/>
      <point x="248" y="111" type="line"/>
      <point x="248" y="512" type="line"/>
    </contour>
    <component base="uni0427"/>
  </outline>
</glyph>
<glyph name="uni0505" format="1">
  <advance width="668"/>
  <unicode hex="0505"/>
  <outline>
    <contour>
      <point x="528" y="-9"/>
      <point x="588" y="71"/>
      <point x="588" y="268" type="curve" smooth="yes"/>
      <point x="588" y="307"/>
      <point x="586" y="344"/>
      <point x="582" y="379" type="curve"/>
      <point x="580" y="379" type="line"/>
      <point x="584" y="344"/>
      <point x="586" y="307"/>
      <point x="586" y="268" type="curve" smooth="yes"/>
      <point x="586" y="72"/>
      <point x="527" y="-7"/>
      <point x="432" y="-7" type="curve" smooth="yes"/>
      <point x="365" y="-7"/>
      <point x="332" y="17"/>
      <point x="271" y="117" type="curve" smooth="yes"/>
      <point x="189" y="251" type="line"/>
      <point x="186" y="251" type="line"/>
      <point x="268" y="118" type="line" smooth="yes"/>
      <point x="330" y="16"/>
      <point x="364" y="-9"/>
      <point x="432" y="-9" type="curve" smooth="yes"/>
    </contour>
    <contour>
      <point x="188" y="250" type="line"/>
      <point x="250" y="252"/>
      <point x="325" y="285"/>
      <point x="325" y="382" type="curve" smooth="yes"/>
      <point x="325" y="465"/>
      <point x="277" y="517"/>
      <point x="138" y="517" type="curve" smooth="yes"/>
      <point x="60" y="517" type="line"/>
      <point x="60" y="515" type="line"/>
      <point x="138" y="515" type="line" smooth="yes"/>
      <point x="276" y="515"/>
      <point x="323" y="464"/>
      <point x="323" y="382" type="curve" smooth="yes"/>
      <point x="323" y="287"/>
      <point x="248" y="252"/>
      <point x="182" y="252" type="curve" smooth="yes"/>
      <point x="81" y="252" type="line"/>
      <point x="81" y="250" type="line"/>
    </contour>
    <contour>
      <point x="329" y="517" type="move" name="top"/>
    </contour>
    <contour>
      <point x="329" y="0" type="move" name="bottom"/>
    </contour>
  </outline>
</glyph>
<glyph name="uni0506" format="1">
  <advance width="451"/>
  <unicode hex="0506"/>
  <outline>
    <contour>
      <point x="60" y="680" type="line"/>
      <point x="60" y="678" type="line"/>
      <point x="177" y="678" type="line" smooth="yes"/>
      <point x="336" y="678"/>
      <point x="390" y="611"/>
      <point x="390" y="506" type="curve" smooth="yes"/>
      <point x="390" y="383"/>
      <point x="302" y="336"/>
      <point x="216" y="336" type="curve" smooth="yes"/>
      <point x="91" y="336" type="line"/>
      <point x="91" y="334" type="line"/>
      <point x="222" y="334" type="line"/>
      <point x="303" y="336"/>
      <point x="392" y="382"/>
      <point x="392" y="506" type="curve" smooth="yes"/>
      <point x="392" y="612"/>
      <point x="337" y="680"/>
      <point x="177" y="680" type="curve" smooth="yes"/>
    </contour>
    <contour>
      <point x="221" y="335" type="line"/>
      <point x="413" y="0" type="line"/>
      <point x="416" y="0" type="line"/>
      <point x="223" y="335" type="line"/>
    </contour>
    <component base="descStraightcy.case" xOffset="403"/>
    <contour>
      <point x="222" y="680" type="move" name="top"/>
    </contour>
    <contour>
      <point x="222" y="-188" type="move" name="bottom"/>
    </contour>
  </outline>
</glyph>
<glyph name="uni0507" format="1">
  <advance width="385"/>
  <unicode hex="0507"/>
  <outline>
    <contour>
      <point x="188" y="250" type="line"/>
      <point x="250" y="252"/>
      <point x="325" y="285"/>
      <point x="325" y="382" type="curve" smooth="yes"/>
      <point x="325" y="465"/>
      <point x="277" y="517"/>
      <point x="138" y="517" type="curve" smooth="yes"/>
      <point x="60" y="517" type="line"/>
      <point x="60" y="515" type="line"/>
      <point x="138" y="515" type="line" smooth="yes"/>
      <point x="276" y="515"/>
      <point x="323" y="464"/>
      <point x="323" y="382" type="curve" smooth="yes"/>
      <point x="323" y="287"/>
      <point x="248" y="252"/>
      <point x="182" y="252" type="curve" smooth="yes"/>
      <point x="81" y="252" type="line"/>
      <point x="81" y="250" type="line"/>
    </contour>
    <contour>
      <point x="186" y="251" type="line"/>
      <point x="342" y="0" type="line"/>
      <point x="345" y="0" type="line"/>
      <point x="189" y="251" type="line"/>
    </contour>
    <component base="descStraightcy" xOffset="332"/>
    <contour>
      <point x="196" y="517" type="move" name="top"/>
    </contour>
    <contour>
      <point x="196" y="-188" type="move" name="bottom"/>
    </contour>
  </outline>
</glyph>
<glyph name="uni0514" format="1">
  <advance width="760"/>
  <unicode hex="0514"/>
  <outline>
    <contour>
      <point x="346" y="678" type="line"/>
      <point x="346" y="680" type="line"/>
      <point x="193" y="680" type="line"/>
      <point x="194" y="678" type="line"/>
    </contour>
    <contour>
      <point x="157" y="300" type="line" smooth="yes"/>
      <point x="134" y="57"/>
      <point x="128" y="29"/>
      <point x="61" y="1" type="curve"/>
      <point x="61" y="-1" type="line"/>
      <point x="130" y="28"/>
      <point x="136" y="55"/>
      <point x="159" y="299" type="curve" smooth="yes"/>
      <point x="195" y="678" type="line"/>
      <point x="193" y="680" type="line"/>
    </contour>
    <component base="X" xOffset="293"/>
    <contour>
      <point x="375" y="680" type="move" name="top"/>
    </contour>
    <contour>
      <point x="375" y="0" type="move" name="bottom"/>
    </contour>
  </outline>
</glyph>
<glyph name="uni0515" format="1">
  <advance width="644"/>
  <unicode hex="0515"/>
  <outline>
    <contour>
      <point x="157" y="515" type="line"/>
      <point x="274" y="515" type="line"/>
      <point x="274" y="517" type="line"/>
      <point x="156" y="517" type="line"/>
    </contour>
    <contour>
      <point x="156" y="517" type="line"/>
      <point x="139" y="285" type="line" smooth="yes"/>
      <point x="123" y="67"/>
      <point x="115" y="23"/>
      <point x="53" y="1" type="curve"/>
      <point x="53" y="-1" type="line"/>
      <point x="117" y="22"/>
      <point x="125" y="65"/>
      <point x="141" y="285" type="curve" smooth="yes"/>
      <point x="158" y="515" type="line"/>
    </contour>
    <component base="x" xOffset="220"/>
    <contour>
      <point x="357" y="517" type="move" name="top"/>
    </contour>
    <contour>
      <point x="357" y="0" type="move" name="bottom"/>
    </contour>
  </outline>
</glyph>
<glyph name="uni0519" format="1">
  <advance width="809"/>
  <unicode hex="0519"/>
  <outline>
    <contour>
      <point x="624" y="-9"/>
      <point x="666" y="13"/>
      <point x="711" y="50" type="curve"/>
      <point x="710" y="52" type="line"/>
      <point x="665" y="14"/>
      <point x="622" y="-7"/>
      <point x="557" y="-7" type="curve" smooth="yes"/>
      <point x="440" y="-7"/>
      <point x="363" y="86"/>
      <point x="363" y="253" type="curve" smooth="yes"/>
      <point x="363" y="424"/>
      <point x="438" y="525"/>
      <point x="557" y="525" type="curve" smooth="yes"/>
      <point x="679" y="525"/>
      <point x="732" y="409"/>
      <point x="732" y="275" type="curve" smooth="yes"/>
      <point x="732" y="262"/>
      <point x="732" y="254"/>
      <point x="731" y="241" type="curve"/>
      <point x="362" y="241" type="line"/>
      <point x="362" y="239" type="line"/>
      <point x="733" y="239" type="line"/>
      <point x="734" y="253"/>
      <point x="734" y="261"/>
      <point x="734" y="275" type="curve" smooth="yes"/>
      <point x="734" y="411"/>
      <point x="680" y="527"/>
      <point x="557" y="527" type="curve" smooth="yes"/>
      <point x="437" y="527"/>
      <point x="361" y="426"/>
      <point x="361" y="253" type="curve" smooth="yes"/>
      <point x="361" y="85"/>
      <point x="438" y="-9"/>
      <point x="557" y="-9" type="curve" smooth="yes"/>
    </contour>
    <contour>
      <point x="82" y="0" type="line"/>
      <point x="219" y="240" type="line"/>
      <point x="217" y="240" type="line"/>
      <point x="80" y="0" type="line"/>
    </contour>
    <contour>
      <point x="362" y="239" type="line"/>
      <point x="362" y="241" type="line"/>
      <point x="224" y="241" type="line" smooth="yes"/>
      <point x="160" y="241"/>
      <point x="96" y="289"/>
      <point x="96" y="374" type="curve" smooth="yes"/>
      <point x="96" y="464"/>
      <point x="150" y="515"/>
      <point x="266" y="515" type="curve" smooth="yes"/>
      <point x="494" y="515" type="line"/>
      <point x="498" y="517" type="line"/>
      <point x="266" y="517" type="line" smooth="yes"/>
      <point x="148" y="517"/>
      <point x="94" y="465"/>
      <point x="94" y="374" type="curve" smooth="yes"/>
      <point x="94" y="298"/>
      <point x="146" y="244"/>
      <point x="217" y="239" type="curve"/>
      <point x="218" y="239" type="line"/>
    </contour>
    <contour>
      <point x="405" y="517" type="move" name="top"/>
    </contour>
    <contour>
      <point x="405" y="0" type="move" name="bottom"/>
    </contour>
  </outline>
</glyph>
<glyph name="uni051E" format="1">
  <advance width="535"/>
  <unicode hex="051E"/>
  <outline>
    <contour>
      <point x="498" y="441" type="line"/>
      <point x="500" y="443" type="line"/>
      <point x="250" y="612" type="line"/>
      <point x="248" y="610" type="line"/>
    </contour>
    <component base="uni041A"/>
  </outline>
</glyph>
<glyph name="uni052D" format="1">
  <advance width="602"/>
  <unicode hex="052D"/>
  <outline>
    <contour>
      <point x="477" y="0" type="line"/>
      <point x="477" y="517" type="line"/>
      <point x="225" y="517" type="line"/>
      <point x="211" y="306" type="line" smooth="yes"/>
      <point x="196" y="87"/>
      <point x="158" y="36"/>
      <point x="106" y="2" type="curve"/>
      <point x="108" y="1" type="line"/>
      <point x="161" y="35"/>
      <point x="198" y="88"/>
      <point x="213" y="306" type="curve" smooth="yes"/>
      <point x="227" y="515" type="line"/>
      <point x="475" y="515" type="line"/>
      <point x="475" y="2" type="line"/>
      <point x="106" y="2" type="line"/>
      <point x="106" y="0" type="line"/>
    </contour>
    <contour>
      <point x="476" y="290" type="line"/>
      <point x="476" y="292" type="line"/>
      <point x="243" y="292" type="line"/>
      <point x="143" y="292"/>
      <point x="107" y="334"/>
      <point x="107" y="422" type="curve" smooth="yes"/>
      <point x="107" y="517" type="line"/>
      <point x="105" y="517" type="line"/>
      <point x="105" y="422" type="line" smooth="yes"/>
      <point x="105" y="332"/>
      <point x="143" y="290"/>
      <point x="243" y="290" type="curve"/>
    </contour>
    <component base="descStraightcy" xOffset="140" xScale="-1"/>
    <component base="descStraightcy" xOffset="457"/>
    <contour>
      <point x="303" y="517" type="move" name="top"/>
    </contour>
    <contour>
      <point x="303" y="-188" type="move" name="bottom"/>
    </contour>
  </outline>
</glyph>
<glyph name="uni0E3F" format="1">
  <advance width="570"/>
  <unicode hex="0E3F"/>
  <outline>
    <contour>
      <point x="288" y="1" type="line"/>
      <point x="288" y="-144" type="line"/>
      <point x="290" y="-144" type="line"/>
      <point x="290" y="1" type="line"/>
    </contour>
    <contour>
      <point x="293" y="805" type="line"/>
      <point x="293" y="658" type="line"/>
      <point x="295" y="658" type="line"/>
      <point x="295" y="805" type="line"/>
    </contour>
    <contour>
      <point x="130" y="660" type="line"/>
      <point x="130" y="0" type="line"/>
      <point x="282" y="0" type="line" smooth="yes"/>
      <point x="408" y="0"/>
      <point x="505" y="45"/>
      <point x="505" y="178" type="curve" smooth="yes"/>
      <point x="505" y="285"/>
      <point x="423" y="344"/>
      <point x="328" y="349" type="curve"/>
      <point x="406" y="359"/>
      <point x="467" y="415"/>
      <point x="468" y="498" type="curve" smooth="yes"/>
      <point x="468" y="600"/>
      <point x="395" y="660"/>
      <point x="260" y="660" type="curve" smooth="yes"/>
    </contour>
    <contour>
      <point x="395" y="658"/>
      <point x="466" y="598"/>
      <point x="466" y="498" type="curve" smooth="yes"/>
      <point x="465" y="416"/>
      <point x="400" y="350"/>
      <point x="307" y="350" type="curve" smooth="yes"/>
      <point x="131" y="350" type="line"/>
      <point x="131" y="348" type="line"/>
      <point x="311" y="348" type="line" smooth="yes"/>
      <point x="421" y="348"/>
      <point x="503" y="283"/>
      <point x="503" y="178" type="curve" smooth="yes"/>
      <point x="503" y="45"/>
      <point x="407" y="2"/>
      <point x="283" y="2" type="curve" smooth="yes"/>
      <point x="132" y="2" type="line"/>
      <point x="132" y="658" type="line"/>
      <point x="261" y="658" type="line" smooth="yes"/>
    </contour>
  </outline>
</glyph>
<glyph name="uni1FBD" format="1">
  <advance width="87"/>
  <unicode hex="1FBD"/>
  <outline>
    <component base="uni0326" yOffset="836"/>
    <contour>
      <point x="33" y="517" type="move" name="_top"/>
    </contour>
  </outline>
</glyph>
<glyph name="uni1FDE" format="1">
  <advance width="170"/>
  <unicode hex="1FDE"/>
  <outline>
    <contour>
      <point x="98" y="599" type="line"/>
      <point x="100" y="599" type="line"/>
      <point x="140" y="726" type="line"/>
      <point x="137" y="726" type="line"/>
    </contour>
    <component base="uni1FFE"/>
    <contour>
      <point x="77" y="517" type="move" name="_top"/>
    </contour>
  </outline>
</glyph>
<glyph name="uni1FFD" format="1">
  <advance width="92"/>
  <unicode hex="1FFD"/>
  <outline>
    <contour>
      <point x="30" y="608" type="line"/>
      <point x="32" y="608" type="line"/>
      <point x="62" y="716" type="line"/>
      <point x="60" y="716" type="line"/>
    </contour>
    <contour>
      <point x="31" y="517" type="move" name="_top"/>
    </contour>
  </outline>
</glyph>
<glyph name="colonmonetary" format="1">
  <advance width="517"/>
  <unicode hex="20A1"/>
  <outline>
    <contour>
      <point x="168" y="-144" type="line"/>
      <point x="170" y="-144" type="line"/>
      <point x="367" y="805" type="line"/>
      <point x="365" y="805" type="line"/>
    </contour>
    <contour>
      <point x="248" y="-144" type="line"/>
      <point x="250" y="-144" type="line"/>
      <point x="447" y="805" type="line"/>
      <point x="445" y="805" type="line"/>
    </contour>
    <contour>
      <point x="188" y="670"/>
      <point x="85" y="561"/>
      <point x="85" y="329" type="curve" smooth="yes"/>
      <point x="85" y="111"/>
      <point x="185" y="-9"/>
      <point x="334" y="-9" type="curve" smooth="yes"/>
      <point x="413" y="-9"/>
      <point x="460" y="22"/>
      <point x="491" y="49" type="curve"/>
      <point x="490" y="50" type="line"/>
      <point x="459" y="24"/>
      <point x="412" y="-7"/>
      <point x="334" y="-7" type="curve" smooth="yes"/>
      <point x="186" y="-7"/>
      <point x="87" y="112"/>
      <point x="87" y="329" type="curve" smooth="yes"/>
      <point x="87" y="560"/>
      <point x="189" y="668"/>
      <point x="335" y="668" type="curve" smooth="yes"/>
      <point x="406" y="668"/>
      <point x="447" y="643"/>
      <point x="481" y="613" type="curve"/>
      <point x="482" y="615" type="line"/>
      <point x="448" y="645"/>
      <point x="407" y="670"/>
      <point x="335" y="670" type="curve" smooth="yes"/>
    </contour>
  </outline>
</glyph>
<glyph name="uni20A6" format="1">
  <advance width="634"/>
  <unicode hex="20A6"/>
  <outline>
    <contour>
      <point x="65" y="291" type="line"/>
      <point x="65" y="289" type="line"/>
      <point x="569" y="289" type="line"/>
      <point x="569" y="291" type="line"/>
    </contour>
    <contour>
      <point x="65" y="385" type="line"/>
      <point x="65" y="383" type="line"/>
      <point x="569" y="383" type="line"/>
      <point x="569" y="385" type="line"/>
    </contour>
    <contour>
      <point x="506" y="660" type="line"/>
      <point x="506" y="132" type="line"/>
      <point x="506" y="92"/>
      <point x="506" y="42"/>
      <point x="506" y="2" type="curve"/>
      <point x="129" y="660" type="line"/>
      <point x="126" y="660" type="line"/>
      <point x="126" y="0" type="line"/>
      <point x="128" y="0" type="line"/>
      <point x="128" y="558" type="line"/>
      <point x="128" y="603"/>
      <point x="128" y="635"/>
      <point x="128" y="658" type="curve"/>
      <point x="505" y="0" type="line"/>
      <point x="508" y="0" type="line"/>
      <point x="508" y="660" type="line"/>
    </contour>
  </outline>
</glyph>
<glyph name="uni20A9" format="1">
  <advance width="765"/>
  <unicode hex="20A9"/>
  <outline>
    <contour>
      <point x="71" y="291" type="line"/>
      <point x="71" y="289" type="line"/>
      <point x="715" y="289" type="line"/>
      <point x="715" y="291" type="line"/>
    </contour>
    <contour>
      <point x="71" y="385" type="line"/>
      <point x="71" y="383" type="line"/>
      <point x="715" y="383" type="line"/>
      <point x="715" y="385" type="line"/>
    </contour>
    <contour>
      <point x="713" y="660" type="line"/>
      <point x="559" y="3" type="line"/>
      <point x="383" y="660" type="line"/>
      <point x="381" y="660" type="line"/>
      <point x="206" y="2" type="line"/>
      <point x="52" y="660" type="line"/>
      <point x="50" y="660" type="line"/>
      <point x="205" y="0" type="line"/>
      <point x="207" y="0" type="line"/>
      <point x="382" y="658" type="line"/>
      <point x="558" y="0" type="line"/>
      <point x="560" y="0" type="line"/>
      <point x="715" y="660" type="line"/>
    </contour>
  </outline>
</glyph>
<glyph name="uni20B4" format="1">
  <advance width="528"/>
  <unicode hex="20B4"/>
  <outline>
    <contour>
      <point x="190" y="670"/>
      <point x="143" y="643"/>
      <point x="102" y="608" type="curve"/>
      <point x="103" y="606" type="line"/>
      <point x="144" y="642"/>
      <point x="192" y="668"/>
      <point x="274" y="668" type="curve" smooth="yes"/>
      <point x="373" y="668"/>
      <point x="439" y="604"/>
      <point x="439" y="522" type="curve" smooth="yes"/>
      <point x="439" y="436"/>
      <point x="398" y="402"/>
      <point x="264" y="359" type="curve" smooth="yes"/>
      <point x="139" y="319"/>
      <point x="80" y="279"/>
      <point x="80" y="173" type="curve" smooth="yes"/>
      <point x="80" y="66"/>
      <point x="157" y="-9"/>
      <point x="274" y="-9" type="curve" smooth="yes"/>
      <point x="363" y="-9"/>
      <point x="416" y="21"/>
      <point x="463" y="67" type="curve"/>
      <point x="462" y="69" type="line"/>
      <point x="415" y="23"/>
      <point x="363" y="-7"/>
      <point x="274" y="-7" type="curve" smooth="yes"/>
      <point x="159" y="-7"/>
      <point x="82" y="67"/>
      <point x="82" y="173" type="curve" smooth="yes"/>
      <point x="82" y="278"/>
      <point x="141" y="317"/>
      <point x="265" y="357" type="curve" smooth="yes"/>
      <point x="398" y="400"/>
      <point x="441" y="434"/>
      <point x="441" y="522" type="curve" smooth="yes"/>
      <point x="441" y="606"/>
      <point x="374" y="670"/>
      <point x="274" y="670" type="curve" smooth="yes"/>
    </contour>
    <contour>
      <point x="65" y="291" type="line"/>
      <point x="65" y="289" type="line"/>
      <point x="435" y="289" type="line"/>
      <point x="435" y="291" type="line"/>
    </contour>
    <contour>
      <point x="65" y="385" type="line"/>
      <point x="65" y="383" type="line"/>
      <point x="435" y="383" type="line"/>
      <point x="435" y="385" type="line"/>
    </contour>
  </outline>
</glyph>
<glyph name="uni2116" format="1">
  <advance width="1064"/>
  <unicode hex="2116"/>
  <outline>
    <contour>
      <point x="718" y="680"/>
      <point x="654" y="608"/>
      <point x="654" y="479" type="curve" smooth="yes"/>
      <point x="654" y="353"/>
      <point x="714" y="278"/>
      <point x="813" y="278" type="curve" smooth="yes"/>
      <point x="912" y="278"/>
      <point x="974" y="352"/>
      <point x="974" y="482" type="curve" smooth="yes"/>
      <point x="974" y="607"/>
      <point x="913" y="680"/>
      <point x="815" y="680" type="curve" smooth="yes"/>
    </contour>
    <contour>
      <point x="913" y="678"/>
      <point x="972" y="605"/>
      <point x="972" y="482" type="curve" smooth="yes"/>
      <point x="972" y="353"/>
      <point x="912" y="280"/>
      <point x="814" y="280" type="curve" smooth="yes"/>
      <point x="716" y="280"/>
      <point x="657" y="355"/>
      <point x="657" y="479" type="curve" smooth="yes"/>
      <point x="657" y="607"/>
      <point x="720" y="678"/>
      <point x="816" y="678" type="curve" smooth="yes"/>
    </contour>
    <component base="N"/>
    <component base="minus" xOffset="575" yOffset="-330"/>
  </outline>
</glyph>
<glyph name="estimated" format="1">
  <advance width="946"/>
  <unicode hex="212E"/>
  <outline>
    <contour>
      <point x="252" y="712"/>
      <point x="71" y="555"/>
      <point x="71" y="344" type="curve" smooth="yes"/>
      <point x="71" y="146"/>
      <point x="244" y="-12"/>
      <point x="469" y="-12" type="curve" smooth="yes"/>
      <point x="611" y="-12"/>
      <point x="703" y="27"/>
      <point x="785" y="115" type="curve"/>
      <point x="783" y="115" type="line"/>
      <point x="715" y="45"/>
      <point x="638" y="-10"/>
      <point x="469" y="-10" type="curve" smooth="yes"/>
      <point x="349" y="-10"/>
      <point x="263" y="35"/>
      <point x="219" y="67" type="curve"/>
      <point x="219" y="353" type="line"/>
      <point x="875" y="353" type="line"/>
      <point x="869" y="558"/>
      <point x="687" y="712"/>
      <point x="473" y="712" type="curve" smooth="yes"/>
    </contour>
    <contour>
      <point x="590" y="710"/>
      <point x="675" y="667"/>
      <point x="729" y="627" type="curve"/>
      <point x="729" y="355" type="line"/>
      <point x="219" y="355" type="line"/>
      <point x="219" y="629" type="line"/>
      <point x="271" y="668"/>
      <point x="356" y="710"/>
      <point x="473" y="710" type="curve" smooth="yes"/>
    </contour>
  </outline>
</glyph>
<glyph name="arrowboth" format="1">
  <advance width="1282"/>
  <unicode hex="2194"/>
  <outline>
    <contour>
      <point x="881" y="577" type="line"/>
      <point x="1100" y="336" type="line" smooth="yes"/>
      <point x="1102" y="334"/>
      <point x="1104" y="332"/>
      <point x="1106" y="330" type="curve"/>
      <point x="176" y="330" type="line"/>
      <point x="178" y="332"/>
      <point x="180" y="334"/>
      <point x="182" y="336" type="curve" smooth="yes"/>
      <point x="401" y="577" type="line"/>
      <point x="399" y="579" type="line"/>
      <point x="173" y="329" type="line"/>
      <point x="399" y="79" type="line"/>
      <point x="401" y="81" type="line"/>
      <point x="182" y="322" type="line" smooth="yes"/>
      <point x="180" y="324"/>
      <point x="178" y="326"/>
      <point x="176" y="328" type="curve"/>
      <point x="1106" y="328" type="line"/>
      <point x="1104" y="326"/>
      <point x="1102" y="324"/>
      <point x="1100" y="322" type="curve" smooth="yes"/>
      <point x="881" y="81" type="line"/>
      <point x="883" y="79" type="line"/>
      <point x="1109" y="329" type="line"/>
      <point x="883" y="579" type="line"/>
    </contour>
  </outline>
</glyph>
<glyph name="uni232B" format="1">
  <advance width="1460"/>
  <unicode hex="232B"/>
  <outline>
    <contour>
      <point x="1310" y="-12" type="line"/>
      <point x="1340" y="-12"/>
      <point x="1360" y="8"/>
      <point x="1360" y="38" type="curve" smooth="yes"/>
      <point x="1360" y="663" type="line" smooth="yes"/>
      <point x="1360" y="693"/>
      <point x="1340" y="713"/>
      <point x="1310" y="713" type="curve" smooth="yes"/>
      <point x="480" y="713" type="line"/>
      <point x="100" y="352" type="line"/>
      <point x="480" y="-12" type="line"/>
    </contour>
    <contour>
      <point x="823" y="355" type="line"/>
      <point x="669" y="508" type="line"/>
      <point x="736" y="577" type="line"/>
      <point x="890" y="422" type="line"/>
      <point x="1044" y="577" type="line"/>
      <point x="1111" y="508" type="line"/>
      <point x="957" y="355" type="line"/>
      <point x="1111" y="201" type="line"/>
      <point x="1044" y="134" type="line"/>
      <point x="890" y="288" type="line"/>
      <point x="736" y="134" type="line"/>
      <point x="669" y="201" type="line"/>
    </contour>
  </outline>
</glyph>
<glyph name="TseHelpercy" format="1">
  <advance width="650"/>
  <outline>
    <contour>
      <point x="520" y="680" type="line"/>
      <point x="518" y="680" type="line"/>
      <point x="518" y="2" type="line"/>
      <point x="132" y="2" type="line"/>
      <point x="132" y="680" type="line"/>
      <point x="130" y="680" type="line"/>
      <point x="130" y="0" type="line"/>
      <point x="520" y="0" type="line"/>
    </contour>
    <contour>
      <point x="325" y="0" type="move" name="bottom"/>
    </contour>
    <contour>
      <point x="530" y="0" type="move" name="bottomright"/>
    </contour>
  </outline>
</glyph>
<glyph name="acute.loclPLK" format="1">
  <advance width="153"/>
  <outline>
    <contour>
      <point x="30" y="583" type="line"/>
      <point x="32" y="582" type="line"/>
      <point x="123" y="724" type="line"/>
      <point x="121" y="725" type="line"/>
    </contour>
    <contour>
      <point x="46" y="517" type="move" name="_top"/>
    </contour>
  </outline>
</glyph>
<glyph name="acutedbl" format="1">
  <advance width="151"/>
  <outline>
    <contour>
      <point x="30" y="664" type="line"/>
      <point x="32" y="663" type="line"/>
      <point x="121" y="770" type="line"/>
      <point x="119" y="772" type="line"/>
    </contour>
    <contour>
      <point x="23" y="517" type="move" name="_topright"/>
    </contour>
    <contour>
      <point x="42" y="517" type="move" name="_top"/>
    </contour>
  </outline>
</glyph>
<glyph name="breveacute.case" format="1">
  <advance width="252"/>
  <outline>
    <component base="uni0306.case" yOffset="-37"/>
    <component base="acutedbl" xOffset="86" yOffset="161"/>
    <contour>
      <point x="126" y="680" type="move" name="_top"/>
    </contour>
  </outline>
</glyph>
<glyph name="brevehookabove" format="1">
  <advance width="252"/>
  <outline>
    <component base="uni0306.case" yOffset="-180"/>
    <component base="hookabovecomb" xOffset="44" yOffset="38"/>
    <contour>
      <point x="126" y="517" type="move" name="_top"/>
    </contour>
  </outline>
</glyph>
<glyph name="circumflexgrave" format="1">
  <advance width="339"/>
  <outline>
    <component base="uni0302.case" xOffset="61" yOffset="-180"/>
    <component base="gravedbl" xOffset="-10" yOffset="3"/>
    <contour>
      <point x="201" y="517" type="move" name="_top"/>
    </contour>
  </outline>
</glyph>
<glyph name="colonmonetary.tf" format="1">
  <advance width="560"/>
  <outline>
    <contour>
      <point x="170" y="-144" type="line"/>
      <point x="172" y="-144" type="line"/>
      <point x="369" y="805" type="line"/>
      <point x="367" y="805" type="line"/>
    </contour>
    <contour>
      <point x="250" y="-144" type="line"/>
      <point x="252" y="-144" type="line"/>
      <point x="449" y="805" type="line"/>
      <point x="447" y="805" type="line"/>
    </contour>
    <contour>
      <point x="190" y="690"/>
      <point x="87" y="581"/>
      <point x="87" y="339" type="curve" smooth="yes"/>
      <point x="87" y="111"/>
      <point x="187" y="-9"/>
      <point x="336" y="-9" type="curve" smooth="yes"/>
      <point x="415" y="-9"/>
      <point x="462" y="22"/>
      <point x="493" y="49" type="curve"/>
      <point x="492" y="50" type="line"/>
      <point x="461" y="24"/>
      <point x="414" y="-7"/>
      <point x="336" y="-7" type="curve" smooth="yes"/>
      <point x="188" y="-7"/>
      <point x="89" y="112"/>
      <point x="89" y="339" type="curve" smooth="yes"/>
      <point x="89" y="580"/>
      <point x="191" y="688"/>
      <point x="337" y="688" type="curve" smooth="yes"/>
      <point x="408" y="688"/>
      <point x="449" y="663"/>
      <point x="483" y="633" type="curve"/>
      <point x="484" y="635" type="line"/>
      <point x="450" y="665"/>
      <point x="409" y="690"/>
      <point x="337" y="690" type="curve" smooth="yes"/>
    </contour>
  </outline>
</glyph>
<glyph name="colonmonetary.tosf" format="1">
  <advance width="560"/>
  <outline>
    <contour>
      <point x="170" y="-144" type="line"/>
      <point x="172" y="-144" type="line"/>
      <point x="369" y="805" type="line"/>
      <point x="367" y="805" type="line"/>
    </contour>
    <contour>
      <point x="250" y="-144" type="line"/>
      <point x="252" y="-144" type="line"/>
      <point x="449" y="805" type="line"/>
      <point x="447" y="805" type="line"/>
    </contour>
    <contour>
      <point x="190" y="670"/>
      <point x="87" y="561"/>
      <point x="87" y="329" type="curve" smooth="yes"/>
      <point x="87" y="111"/>
      <point x="187" y="-9"/>
      <point x="336" y="-9" type="curve" smooth="yes"/>
      <point x="415" y="-9"/>
      <point x="462" y="22"/>
      <point x="493" y="49" type="curve"/>
      <point x="492" y="50" type="line"/>
      <point x="461" y="24"/>
      <point x="414" y="-7"/>
      <point x="336" y="-7" type="curve" smooth="yes"/>
      <point x="188" y="-7"/>
      <point x="89" y="112"/>
      <point x="89" y="329" type="curve" smooth="yes"/>
      <point x="89" y="560"/>
      <point x="191" y="668"/>
      <point x="337" y="668" type="curve" smooth="yes"/>
      <point x="408" y="668"/>
      <point x="449" y="643"/>
      <point x="483" y="613" type="curve"/>
      <point x="484" y="615" type="line"/>
      <point x="450" y="645"/>
      <point x="409" y="670"/>
      <point x="337" y="670" type="curve" smooth="yes"/>
    </contour>
  </outline>
</glyph>
<glyph name="dieresiscaroncomb.case" format="1">
  <advance width="278"/>
  <outline>
    <contour>
      <point x="60" y="754"/>
      <point x="58" y="751"/>
      <point x="58" y="748" type="curve" smooth="yes"/>
      <point x="58" y="745"/>
      <point x="60" y="742"/>
      <point x="64" y="742" type="curve" smooth="yes"/>
      <point x="68" y="742"/>
      <point x="70" y="745"/>
      <point x="70" y="748" type="curve" smooth="yes"/>
      <point x="70" y="751"/>
      <point x="68" y="754"/>
      <point x="64" y="754" type="curve" smooth="yes"/>
    </contour>
    <contour>
      <point x="209" y="754"/>
      <point x="207" y="751"/>
      <point x="207" y="748" type="curve" smooth="yes"/>
      <point x="207" y="745"/>
      <point x="209" y="742"/>
      <point x="213" y="742" type="curve" smooth="yes"/>
      <point x="217" y="742"/>
      <point x="219" y="745"/>
      <point x="219" y="748" type="curve" smooth="yes"/>
      <point x="219" y="751"/>
      <point x="217" y="754"/>
      <point x="213" y="754" type="curve" smooth="yes"/>
    </contour>
    <component base="uni030C.case" yOffset="3"/>
    <contour>
      <point x="139" y="680" type="move" name="_top"/>
    </contour>
  </outline>
</glyph>
<glyph name="dieresisgravecomb.case" format="1">
  <advance width="221"/>
  <outline>
    <contour>
      <point x="32" y="754"/>
      <point x="30" y="751"/>
      <point x="30" y="748" type="curve" smooth="yes"/>
      <point x="30" y="745"/>
      <point x="32" y="742"/>
      <point x="36" y="742" type="curve" smooth="yes"/>
      <point x="40" y="742"/>
      <point x="42" y="745"/>
      <point x="42" y="748" type="curve" smooth="yes"/>
      <point x="42" y="751"/>
      <point x="40" y="754"/>
      <point x="36" y="754" type="curve" smooth="yes"/>
    </contour>
    <contour>
      <point x="181" y="754"/>
      <point x="179" y="751"/>
      <point x="179" y="748" type="curve" smooth="yes"/>
      <point x="179" y="745"/>
      <point x="181" y="742"/>
      <point x="185" y="742" type="curve" smooth="yes"/>
      <point x="189" y="742"/>
      <point x="191" y="745"/>
      <point x="191" y="748" type="curve" smooth="yes"/>
      <point x="191" y="751"/>
      <point x="189" y="754"/>
      <point x="185" y="754" type="curve" smooth="yes"/>
    </contour>
    <component base="gravedbl" yOffset="113"/>
    <contour>
      <point x="111" y="680" type="move" name="_top"/>
    </contour>
  </outline>
</glyph>
<glyph name="dollar.tf" format="1">
  <advance width="560"/>
  <outline>
    <contour>
      <point x="266" y="-8" type="line"/>
      <point x="266" y="-144" type="line"/>
      <point x="268" y="-144" type="line"/>
      <point x="268" y="-8" type="line"/>
    </contour>
    <contour>
      <point x="271" y="818" type="line"/>
      <point x="271" y="689" type="line"/>
      <point x="273" y="689" type="line"/>
      <point x="273" y="818" type="line"/>
    </contour>
    <contour>
      <point x="163" y="690"/>
      <point x="96" y="625"/>
      <point x="96" y="538" type="curve" smooth="yes"/>
      <point x="96" y="447"/>
      <point x="140" y="413"/>
      <point x="275" y="369" type="curve" smooth="yes"/>
      <point x="402" y="328"/>
      <point x="462" y="288"/>
      <point x="462" y="178" type="curve" smooth="yes"/>
      <point x="462" y="68"/>
      <point x="383" y="-7"/>
      <point x="266" y="-7" type="curve" smooth="yes"/>
      <point x="175" y="-7"/>
      <point x="123" y="24"/>
      <point x="74" y="70" type="curve"/>
      <point x="73" y="68" type="line"/>
      <point x="122" y="22"/>
      <point x="175" y="-9"/>
      <point x="266" y="-9" type="curve" smooth="yes"/>
      <point x="385" y="-9"/>
      <point x="464" y="67"/>
      <point x="464" y="178" type="curve" smooth="yes"/>
      <point x="464" y="289"/>
      <point x="404" y="330"/>
      <point x="276" y="371" type="curve" smooth="yes"/>
      <point x="140" y="415"/>
      <point x="98" y="449"/>
      <point x="98" y="538" type="curve" smooth="yes"/>
      <point x="98" y="623"/>
      <point x="164" y="688"/>
      <point x="268" y="688" type="curve" smooth="yes"/>
      <point x="349" y="688"/>
      <point x="397" y="662"/>
      <point x="439" y="625" type="curve"/>
      <point x="440" y="627" type="line"/>
      <point x="398" y="663"/>
      <point x="351" y="690"/>
      <point x="268" y="690" type="curve" smooth="yes"/>
    </contour>
  </outline>
</glyph>
<glyph name="f_f" format="1">
  <advance width="574"/>
  <outline>
    <contour>
      <point x="174" y="723"/>
      <point x="127" y="684"/>
      <point x="127" y="608" type="curve" smooth="yes"/>
      <point x="127" y="0" type="line"/>
      <point x="129" y="0" type="line"/>
      <point x="129" y="608" type="line" smooth="yes"/>
      <point x="129" y="683"/>
      <point x="175" y="721"/>
      <point x="248" y="721" type="curve" smooth="yes"/>
      <point x="310" y="721"/>
      <point x="363" y="705"/>
      <point x="417" y="680" type="curve"/>
      <point x="418" y="682" type="line"/>
      <point x="364" y="707"/>
      <point x="310" y="723"/>
      <point x="248" y="723" type="curve" smooth="yes"/>
    </contour>
    <contour>
      <point x="35" y="517" type="line"/>
      <point x="35" y="515" type="line"/>
      <point x="330" y="515" type="line"/>
      <point x="330" y="517" type="line"/>
    </contour>
    <component base="f" xOffset="275"/>
  </outline>
</glyph>
<glyph name="f_f_i" format="1">
  <advance width="814"/>
  <outline>
    <contour>
      <point x="174" y="723"/>
      <point x="127" y="684"/>
      <point x="127" y="608" type="curve" smooth="yes"/>
      <point x="127" y="0" type="line"/>
      <point x="129" y="0" type="line"/>
      <point x="129" y="608" type="line" smooth="yes"/>
      <point x="129" y="683"/>
      <point x="175" y="721"/>
      <point x="248" y="721" type="curve" smooth="yes"/>
      <point x="310" y="721"/>
      <point x="363" y="705"/>
      <point x="417" y="680" type="curve"/>
      <point x="417" y="682" type="line"/>
      <point x="364" y="707"/>
      <point x="310" y="723"/>
      <point x="248" y="723" type="curve" smooth="yes"/>
    </contour>
    <contour>
      <point x="35" y="517" type="line"/>
      <point x="35" y="515" type="line"/>
      <point x="330" y="515" type="line"/>
      <point x="330" y="517" type="line"/>
    </contour>
    <component base="f_i" xOffset="275"/>
  </outline>
</glyph>
<glyph name="f_f_t" format="1">
  <advance width="878"/>
  <outline>
    <contour>
      <point x="174" y="723"/>
      <point x="127" y="684"/>
      <point x="127" y="608" type="curve" smooth="yes"/>
      <point x="127" y="0" type="line"/>
      <point x="129" y="0" type="line"/>
      <point x="129" y="608" type="line" smooth="yes"/>
      <point x="129" y="683"/>
      <point x="175" y="721"/>
      <point x="248" y="721" type="curve" smooth="yes"/>
      <point x="310" y="721"/>
      <point x="363" y="705"/>
      <point x="417" y="680" type="curve"/>
      <point x="418" y="682" type="line"/>
      <point x="364" y="707"/>
      <point x="310" y="723"/>
      <point x="248" y="723" type="curve" smooth="yes"/>
    </contour>
    <contour>
      <point x="35" y="517" type="line"/>
      <point x="35" y="515" type="line"/>
      <point x="330" y="515" type="line"/>
      <point x="330" y="517" type="line"/>
    </contour>
    <component base="f_t" xOffset="275"/>
  </outline>
</glyph>
<glyph name="f_j" format="1">
  <advance width="539"/>
  <outline>
    <contour>
      <point x="167" y="733"/>
      <point x="127" y="694"/>
      <point x="127" y="612" type="curve" smooth="yes"/>
      <point x="127" y="517" type="line"/>
      <point x="35" y="517" type="line"/>
      <point x="35" y="515" type="line"/>
      <point x="127" y="515" type="line"/>
      <point x="127" y="0" type="line"/>
      <point x="129" y="0" type="line"/>
      <point x="129" y="515" type="line"/>
      <point x="412" y="515" type="line"/>
      <point x="414" y="517" type="line"/>
      <point x="129" y="517" type="line"/>
      <point x="129" y="612" type="line" smooth="yes"/>
      <point x="129" y="693"/>
      <point x="168" y="731"/>
      <point x="248" y="731" type="curve" smooth="yes"/>
      <point x="295" y="731"/>
      <point x="338" y="715"/>
      <point x="373" y="696" type="curve"/>
      <point x="374" y="698" type="line"/>
      <point x="339" y="717"/>
      <point x="295" y="733"/>
      <point x="248" y="733" type="curve" smooth="yes"/>
    </contour>
    <contour>
      <point x="412" y="517" type="line"/>
      <point x="412" y="1" type="line" smooth="yes"/>
      <point x="412" y="-117"/>
      <point x="383" y="-153"/>
      <point x="315" y="-189" type="curve"/>
      <point x="316" y="-191" type="line"/>
      <point x="385" y="-154"/>
      <point x="414" y="-118"/>
      <point x="414" y="1" type="curve" smooth="yes"/>
      <point x="414" y="517" type="line"/>
    </contour>
  </outline>
</glyph>
<glyph name="f_t" format="1">
  <advance width="603"/>
  <outline>
    <contour>
      <point x="174" y="733"/>
      <point x="127" y="694"/>
      <point x="127" y="618" type="curve" smooth="yes"/>
      <point x="127" y="0" type="line"/>
      <point x="129" y="0" type="line"/>
      <point x="129" y="618" type="line" smooth="yes"/>
      <point x="129" y="693"/>
      <point x="175" y="731"/>
      <point x="248" y="731" type="curve" smooth="yes"/>
      <point x="307" y="731"/>
      <point x="358" y="717"/>
      <point x="399" y="700" type="curve"/>
      <point x="399" y="702" type="line"/>
      <point x="359" y="719"/>
      <point x="307" y="733"/>
      <point x="248" y="733" type="curve" smooth="yes"/>
    </contour>
    <contour>
      <point x="35" y="517" type="line"/>
      <point x="35" y="515" type="line"/>
      <point x="280" y="515" type="line"/>
      <point x="280" y="517" type="line"/>
    </contour>
    <contour>
      <point x="398" y="702" type="line"/>
      <point x="398" y="113" type="line" smooth="yes"/>
      <point x="398" y="35"/>
      <point x="436" y="-9"/>
      <point x="501" y="-9" type="curve" smooth="yes"/>
      <point x="543" y="-9"/>
      <point x="570" y="4"/>
      <point x="595" y="19" type="curve"/>
      <point x="594" y="21" type="line"/>
      <point x="571" y="6"/>
      <point x="543" y="-7"/>
      <point x="501" y="-7" type="curve" smooth="yes"/>
      <point x="437" y="-7"/>
      <point x="400" y="37"/>
      <point x="400" y="113" type="curve" smooth="yes"/>
      <point x="400" y="702" type="line"/>
    </contour>
    <contour>
      <point x="256" y="517" type="line"/>
      <point x="256" y="515" type="line"/>
      <point x="546" y="515" type="line"/>
      <point x="546" y="517" type="line"/>
    </contour>
  </outline>
</glyph>
<glyph name="gravecomb.case" format="1">
  <advance width="227"/>
  <outline>
    <contour>
      <point x="30" y="840" type="line"/>
      <point x="196" y="771" type="line"/>
      <point x="197" y="773" type="line"/>
      <point x="31" y="842" type="line"/>
    </contour>
    <contour>
      <point x="108" y="842" type="move" name="top"/>
    </contour>
    <contour>
      <point x="107" y="680" type="move" name="_top"/>
    </contour>
  </outline>
</glyph>
<glyph name="gravedbl" format="1">
  <advance width="160"/>
  <outline>
    <contour>
      <point x="39" y="770" type="line"/>
      <point x="128" y="663" type="line"/>
      <point x="130" y="664" type="line"/>
      <point x="41" y="772" type="line"/>
    </contour>
    <contour>
      <point x="138" y="517" type="move" name="_topleft"/>
    </contour>
    <contour>
      <point x="119" y="517" type="move" name="_top"/>
    </contour>
  </outline>
</glyph>
<glyph name="hbar.sc" format="1">
  <advance width="606"/>
  <outline>
    <contour>
      <point x="476" y="434" type="line"/>
      <point x="87" y="434" type="line"/>
      <point x="87" y="432" type="line"/>
      <point x="135" y="432" type="line"/>
      <point x="519" y="432" type="line"/>
      <point x="519" y="434" type="line"/>
    </contour>
    <component base="h.sc" xOffset="5"/>
  </outline>
</glyph>
<glyph name="lozenge.tosf" format="1">
  <advance width="560"/>
  <outline>
    <contour>
      <point x="279" y="660" type="line"/>
      <point x="102" y="332" type="line"/>
      <point x="279" y="0" type="line"/>
      <point x="281" y="0" type="line"/>
      <point x="458" y="332" type="line"/>
      <point x="281" y="660" type="line"/>
    </contour>
    <contour>
      <point x="456" y="332" type="line"/>
      <point x="280" y="2" type="line"/>
      <point x="104" y="332" type="line"/>
      <point x="280" y="658" type="line"/>
    </contour>
  </outline>
</glyph>
<glyph name="lslash.sc" format="1">
  <advance width="401"/>
  <outline>
    <contour>
      <point x="125" y="246" type="line"/>
      <point x="52" y="201" type="line"/>
      <point x="52" y="199" type="line"/>
      <point x="315" y="361" type="line"/>
      <point x="315" y="363" type="line"/>
    </contour>
    <component base="l.sc" xOffset="-5"/>
  </outline>
</glyph>
<glyph name="macronacutesingle.case" format="1">
  <advance width="250"/>
  <outline>
    <component base="uni0304" yOffset="83"/>
    <component base="acutecomb.case" xOffset="10" yOffset="74"/>
    <contour>
      <point x="125" y="680" type="move" name="_top"/>
    </contour>
  </outline>
</glyph>
<glyph name="product.tosf" format="1">
  <advance width="560"/>
  <outline>
    <contour>
      <point x="483" y="660" type="line"/>
      <point x="76" y="660" type="line"/>
      <point x="76" y="658" type="line"/>
      <point x="152" y="658" type="line"/>
      <point x="152" y="-190" type="line"/>
      <point x="154" y="-190" type="line"/>
      <point x="154" y="658" type="line"/>
      <point x="405" y="658" type="line"/>
      <point x="405" y="-190" type="line"/>
      <point x="407" y="-190" type="line"/>
      <point x="407" y="658" type="line"/>
      <point x="483" y="658" type="line"/>
    </contour>
  </outline>
</glyph>
<glyph name="ringacutecomb" format="1">
  <advance width="227"/>
  <outline>
    <component base="uni030A" xOffset="21" yOffset="-70"/>
    <component base="acutecomb.case" yOffset="-28"/>
    <contour>
      <point x="114" y="517" type="move" name="_top"/>
    </contour>
  </outline>
</glyph>
<glyph name="tbar.sc" format="1">
  <advance width="414"/>
  <outline>
    <contour>
      <point x="315" y="311" type="line"/>
      <point x="208" y="311" type="line"/>
      <point x="99" y="311" type="line"/>
      <point x="99" y="309" type="line"/>
      <point x="206" y="309" type="line"/>
      <point x="315" y="309" type="line"/>
    </contour>
    <component base="t.sc"/>
  </outline>
</glyph>
<glyph name="tildemacroncomb.case" format="1">
  <advance width="303"/>
  <outline>
    <component base="tildecomb" yOffset="73"/>
    <component base="uni0304.case" xOffset="24" yOffset="59"/>
    <contour>
      <point x="151" y="680" type="move" name="_top"/>
    </contour>
  </outline>
</glyph>
<glyph name="tonos.case" format="1">
  <advance width="67"/>
  <outline>
    <contour>
      <point x="30" y="559" type="line"/>
      <point x="32" y="559" type="line"/>
      <point x="37" y="680" type="line"/>
      <point x="35" y="680" type="line"/>
    </contour>
    <contour>
      <point x="68" y="680" type="move" name="_topleft"/>
    </contour>
  </outline>
</glyph>
<glyph name="underscore.001" format="1">
  <advance width="520"/>
  <outline>
    <contour>
      <point x="467" y="-87" type="line"/>
      <point x="467" y="-85" type="line"/>
      <point x="53" y="-85" type="line"/>
      <point x="53" y="-87" type="line"/>
    </contour>
  </outline>
</glyph>
<glyph name="uni01B4.sc" format="1">
  <advance width="403"/>
  <outline>
    <contour>
      <point x="213" y="0" type="line"/>
      <point x="213" y="222" type="line"/>
      <point x="350" y="511" type="line" smooth="yes"/>
      <point x="367" y="547"/>
      <point x="383" y="564"/>
      <point x="415" y="564" type="curve" smooth="yes"/>
      <point x="430" y="564"/>
      <point x="441" y="561"/>
      <point x="455" y="554" type="curve"/>
      <point x="455" y="556" type="line"/>
      <point x="441" y="563"/>
      <point x="430" y="566"/>
      <point x="415" y="566" type="curve" smooth="yes"/>
      <point x="382" y="566"/>
      <point x="365" y="548"/>
      <point x="348" y="512" type="curve" smooth="yes"/>
      <point x="212" y="224" type="line"/>
      <point x="27" y="557" type="line"/>
      <point x="25" y="557" type="line"/>
      <point x="211" y="222" type="line"/>
      <point x="211" y="0" type="line"/>
    </contour>
    <contour>
      <point x="213" y="557" type="move" name="top"/>
    </contour>
    <contour>
      <point x="212" y="0" type="move" name="bottom"/>
    </contour>
  </outline>
</glyph>
<glyph name="uni01F6.sc" format="1">
  <advance width="856"/>
  <outline>
    <contour>
      <point x="469" y="557" type="line"/>
      <point x="469" y="297" type="line"/>
      <point x="132" y="297" type="line"/>
      <point x="132" y="557" type="line"/>
      <point x="130" y="557" type="line"/>
      <point x="130" y="0" type="line"/>
      <point x="132" y="0" type="line"/>
      <point x="132" y="295" type="line"/>
      <point x="469" y="295" type="line"/>
      <point x="469" y="140" type="line"/>
      <point x="471" y="140" type="line"/>
      <point x="471" y="557" type="line"/>
    </contour>
    <contour>
      <point x="687" y="-7"/>
      <point x="756" y="58"/>
      <point x="756" y="250" type="curve" smooth="yes"/>
      <point x="756" y="322"/>
      <point x="754" y="352"/>
      <point x="750" y="411" type="curve"/>
      <point x="748" y="411" type="line"/>
      <point x="752" y="352"/>
      <point x="754" y="322"/>
      <point x="754" y="250" type="curve" smooth="yes"/>
      <point x="754" y="59"/>
      <point x="686" y="-5"/>
      <point x="596" y="-5" type="curve" smooth="yes"/>
      <point x="525" y="-5"/>
      <point x="471" y="39"/>
      <point x="471" y="126" type="curve" smooth="yes"/>
      <point x="471" y="424" type="line"/>
      <point x="469" y="424" type="line"/>
      <point x="469" y="126" type="line" smooth="yes"/>
      <point x="469" y="38"/>
      <point x="524" y="-7"/>
      <point x="596" y="-7" type="curve" smooth="yes"/>
    </contour>
  </outline>
</glyph>
<glyph name="uni0220.sc" format="1">
  <advance width="605"/>
  <outline>
    <contour>
      <point x="255" y="567"/>
      <point x="184" y="513"/>
      <point x="131" y="429" type="curve"/>
      <point x="132" y="427" type="line"/>
      <point x="185" y="511"/>
      <point x="256" y="565"/>
      <point x="341" y="565" type="curve" smooth="yes"/>
      <point x="436" y="565"/>
      <point x="478" y="506"/>
      <point x="478" y="408" type="curve" smooth="yes"/>
      <point x="478" y="-188" type="line"/>
      <point x="480" y="-188" type="line"/>
      <point x="480" y="408" type="line" smooth="yes"/>
      <point x="480" y="507"/>
      <point x="437" y="567"/>
      <point x="341" y="567" type="curve" smooth="yes"/>
    </contour>
    <contour>
      <point x="130" y="557" type="line"/>
      <point x="130" y="0" type="line"/>
      <point x="132" y="0" type="line"/>
      <point x="132" y="429" type="line"/>
      <point x="132" y="557" type="line"/>
    </contour>
    <contour>
      <point x="303" y="557" type="move" name="top"/>
    </contour>
    <contour>
      <point x="303" y="-188" type="move" name="bottom"/>
    </contour>
  </outline>
</glyph>
<glyph name="uni0223.sc" format="1">
  <advance width="563"/>
  <outline>
    <contour>
      <point x="160" y="320"/>
      <point x="85" y="253"/>
      <point x="85" y="153" type="curve" smooth="yes"/>
      <point x="85" y="59"/>
      <point x="157" y="-7"/>
      <point x="281" y="-7" type="curve" smooth="yes"/>
      <point x="408" y="-7"/>
      <point x="478" y="60"/>
      <point x="478" y="157" type="curve" smooth="yes"/>
      <point x="478" y="258"/>
      <point x="407" y="320"/>
      <point x="281" y="320" type="curve" smooth="yes"/>
    </contour>
    <contour>
      <point x="406" y="318"/>
      <point x="476" y="257"/>
      <point x="476" y="157" type="curve" smooth="yes"/>
      <point x="476" y="61"/>
      <point x="407" y="-5"/>
      <point x="281" y="-5" type="curve" smooth="yes"/>
      <point x="158" y="-5"/>
      <point x="87" y="60"/>
      <point x="87" y="153" type="curve" smooth="yes"/>
      <point x="87" y="252"/>
      <point x="162" y="318"/>
      <point x="281" y="318" type="curve" smooth="yes"/>
    </contour>
    <contour>
      <point x="432" y="557" type="line"/>
      <point x="432" y="452" type="line" smooth="yes"/>
      <point x="432" y="376"/>
      <point x="401" y="320"/>
      <point x="282" y="320" type="curve" smooth="yes"/>
      <point x="163" y="320"/>
      <point x="132" y="376"/>
      <point x="132" y="452" type="curve" smooth="yes"/>
      <point x="132" y="557" type="line"/>
      <point x="130" y="557" type="line"/>
      <point x="130" y="452" type="line" smooth="yes"/>
      <point x="130" y="375"/>
      <point x="161" y="318"/>
      <point x="282" y="318" type="curve" smooth="yes"/>
      <point x="402" y="318"/>
      <point x="434" y="375"/>
      <point x="434" y="452" type="curve" smooth="yes"/>
      <point x="434" y="557" type="line"/>
    </contour>
    <contour>
      <point x="282" y="557" type="move" name="top"/>
    </contour>
    <contour>
      <point x="282" y="0" type="move" name="bottom"/>
    </contour>
  </outline>
</glyph>
<glyph name="uni023C.sc" format="1">
  <advance width="472"/>
  <outline>
    <contour>
      <point x="178" y="-47" type="line"/>
      <point x="180" y="-47" type="line"/>
      <point x="357" y="597" type="line"/>
      <point x="355" y="597" type="line"/>
    </contour>
    <component base="c.sc"/>
  </outline>
</glyph>
<glyph name="uni0289.sc" format="1">
  <advance width="606"/>
  <outline>
    <contour>
      <point x="476" y="434" type="line"/>
      <point x="87" y="434" type="line"/>
      <point x="87" y="432" type="line"/>
      <point x="135" y="432" type="line"/>
      <point x="519" y="432" type="line"/>
      <point x="519" y="434" type="line"/>
    </contour>
    <component base="u.sc" xOffset="15"/>
  </outline>
</glyph>
<glyph name="uni0306.case" format="1">
  <advance width="252"/>
  <outline>
    <contour>
      <point x="181" y="774"/>
      <point x="211" y="805"/>
      <point x="222" y="835" type="curve"/>
      <point x="220" y="835" type="line"/>
      <point x="207" y="801"/>
      <point x="174" y="776"/>
      <point x="126" y="776" type="curve"/>
      <point x="78" y="776"/>
      <point x="45" y="801"/>
      <point x="32" y="835" type="curve"/>
      <point x="30" y="835" type="line"/>
      <point x="41" y="805"/>
      <point x="71" y="774"/>
      <point x="126" y="774" type="curve"/>
    </contour>
    <contour>
      <point x="128" y="835" type="move" name="top"/>
    </contour>
    <contour>
      <point x="126" y="680" type="move" name="_top"/>
    </contour>
  </outline>
</glyph>
<glyph name="uni0308.case" format="1">
  <advance width="221"/>
  <outline>
    <component base="uni0308" yOffset="126"/>
    <contour>
      <point x="113" y="817" type="move" name="top"/>
    </contour>
    <contour>
      <point x="111" y="680" type="move" name="_top"/>
    </contour>
  </outline>
</glyph>
<glyph name="uni030B.case" format="1">
  <advance width="229"/>
  <outline>
    <component base="uni030B" yOffset="126"/>
    <contour>
      <point x="85" y="680" type="move" name="_top"/>
    </contour>
  </outline>
</glyph>
<glyph name="uni037B.sc" format="1">
  <advance width="496"/>
  <outline>
    <contour>
      <point x="118" y="566"/>
      <point x="74" y="545"/>
      <point x="34" y="519" type="curve"/>
      <point x="35" y="517" type="line"/>
      <point x="75" y="543"/>
      <point x="119" y="564"/>
      <point x="194" y="564" type="curve" smooth="yes"/>
      <point x="327" y="564"/>
      <point x="409" y="471"/>
      <point x="409" y="278" type="curve" smooth="yes"/>
      <point x="409" y="94"/>
      <point x="321" y="-5"/>
      <point x="187" y="-5" type="curve" smooth="yes"/>
      <point x="109" y="-5"/>
      <point x="65" y="16"/>
      <point x="27" y="43" type="curve"/>
      <point x="26" y="41" type="line"/>
      <point x="64" y="15"/>
      <point x="108" y="-7"/>
      <point x="187" y="-7" type="curve" smooth="yes"/>
      <point x="322" y="-7"/>
      <point x="411" y="93"/>
      <point x="411" y="278" type="curve" smooth="yes"/>
      <point x="411" y="472"/>
      <point x="328" y="566"/>
      <point x="194" y="566" type="curve" smooth="yes"/>
    </contour>
    <contour>
      <point x="181" y="280" type="move" name="center"/>
    </contour>
    <contour>
      <point x="243" y="0" type="move" name="bottom"/>
    </contour>
    <contour>
      <point x="243" y="557" type="move" name="top"/>
    </contour>
  </outline>
</glyph>
<glyph name="uni044A.sc" format="1">
  <advance width="577"/>
  <outline>
    <contour>
      <point x="208" y="557" type="line"/>
      <point x="20" y="557" type="line"/>
      <point x="20" y="555" type="line"/>
      <point x="206" y="555" type="line"/>
    </contour>
    <component base="uni044C.sc" xOffset="76"/>
  </outline>
</glyph>
<glyph name="uni044D.sc" format="1">
  <advance width="450"/>
  <outline>
    <contour>
      <point x="123" y="565"/>
      <point x="79" y="545"/>
      <point x="33" y="511" type="curve"/>
      <point x="34" y="509" type="line"/>
      <point x="80" y="543"/>
      <point x="124" y="563"/>
      <point x="190" y="563" type="curve" smooth="yes"/>
      <point x="291" y="563"/>
      <point x="363" y="493"/>
      <point x="363" y="289" type="curve"/>
      <point x="363" y="288" type="line"/>
      <point x="363" y="100"/>
      <point x="302" y="-5"/>
      <point x="170" y="-5" type="curve"/>
      <point x="101" y="-5"/>
      <point x="59" y="20"/>
      <point x="28" y="52" type="curve"/>
      <point x="26" y="50" type="line"/>
      <point x="58" y="18"/>
      <point x="100" y="-7"/>
      <point x="170" y="-7" type="curve"/>
      <point x="303" y="-7"/>
      <point x="365" y="99"/>
      <point x="365" y="288" type="curve" smooth="yes"/>
      <point x="365" y="494"/>
      <point x="292" y="565"/>
      <point x="190" y="565" type="curve" smooth="yes"/>
    </contour>
    <contour>
      <point x="102" y="294" type="line"/>
      <point x="102" y="292" type="line"/>
      <point x="364" y="292" type="line"/>
      <point x="364" y="294" type="line"/>
    </contour>
    <contour>
      <point x="187" y="557" type="move" name="top"/>
    </contour>
    <contour>
      <point x="214" y="0" type="move" name="bottom"/>
    </contour>
  </outline>
</glyph>
<glyph name="uni0463.sc" format="1">
  <advance width="534"/>
  <outline>
    <contour>
      <point x="164" y="0" type="line"/>
      <point x="294" y="0" type="line" smooth="yes"/>
      <point x="406" y="0"/>
      <point x="474" y="58"/>
      <point x="474" y="172" type="curve" smooth="yes"/>
      <point x="474" y="274"/>
      <point x="409" y="327"/>
      <point x="290" y="327" type="curve" smooth="yes"/>
      <point x="165" y="327" type="line"/>
      <point x="165" y="325" type="line"/>
      <point x="290" y="325" type="line" smooth="yes"/>
      <point x="408" y="325"/>
      <point x="472" y="273"/>
      <point x="472" y="172" type="curve" smooth="yes"/>
      <point x="472" y="59"/>
      <point x="405" y="2"/>
      <point x="294" y="2" type="curve" smooth="yes"/>
      <point x="166" y="2" type="line"/>
      <point x="166" y="557" type="line"/>
      <point x="164" y="557" type="line"/>
    </contour>
    <contour>
      <point x="322" y="461" type="line"/>
      <point x="322" y="463" type="line"/>
      <point x="164" y="463" type="line"/>
      <point x="20" y="463" type="line"/>
      <point x="20" y="461" type="line"/>
    </contour>
    <contour>
      <point x="277" y="557" type="move" name="top"/>
    </contour>
    <contour>
      <point x="277" y="0" type="move" name="bottom"/>
    </contour>
  </outline>
</glyph>
<glyph name="uni0493.sc" format="1">
  <advance width="423"/>
  <outline>
    <contour>
      <point x="142" y="322" type="line"/>
      <point x="75" y="322" type="line"/>
      <point x="75" y="320" type="line"/>
      <point x="320" y="320" type="line"/>
      <point x="320" y="322" type="line"/>
    </contour>
    <component base="uni0433.sc" xOffset="12"/>
  </outline>
</glyph>
<glyph name="uni049F.sc" format="1">
  <advance width="488"/>
  <outline>
    <contour>
      <point x="263" y="455" type="line"/>
      <point x="263" y="457" type="line"/>
      <point x="135" y="457" type="line"/>
      <point x="81" y="457" type="line"/>
      <point x="81" y="455" type="line"/>
    </contour>
    <component base="uni043A.sc" xOffset="5"/>
  </outline>
</glyph>
<glyph name="uni04A5.sc" format="1">
  <advance width="677"/>
  <outline>
    <contour>
      <point x="471" y="555" type="line"/>
      <point x="657" y="555" type="line"/>
      <point x="657" y="557" type="line"/>
      <point x="469" y="557" type="line"/>
    </contour>
    <component base="h.sc"/>
  </outline>
</glyph>
<glyph name="uni04BD.sc" format="1">
  <advance width="652"/>
  <outline>
    <contour>
      <point x="160" y="275" type="line"/>
      <point x="157" y="469"/>
      <point x="244" y="565"/>
      <point x="369" y="565" type="curve" smooth="yes"/>
      <point x="500" y="565"/>
      <point x="580" y="466"/>
      <point x="575" y="275" type="curve"/>
      <point x="159" y="275" type="line"/>
      <point x="159" y="273" type="line"/>
      <point x="577" y="273" type="line"/>
      <point x="577" y="281"/>
      <point x="577" y="284"/>
      <point x="577" y="293" type="curve" smooth="yes"/>
      <point x="577" y="472"/>
      <point x="499" y="567"/>
      <point x="369" y="567" type="curve" smooth="yes"/>
      <point x="243" y="567"/>
      <point x="158" y="472"/>
      <point x="158" y="285" type="curve" smooth="yes"/>
      <point x="158" y="78"/>
      <point x="240" y="-7"/>
      <point x="367" y="-7" type="curve" smooth="yes"/>
      <point x="436" y="-7"/>
      <point x="485" y="16"/>
      <point x="537" y="58" type="curve"/>
      <point x="535" y="60" type="line"/>
      <point x="484" y="18"/>
      <point x="435" y="-5"/>
      <point x="367" y="-5" type="curve" smooth="yes"/>
      <point x="241" y="-5"/>
      <point x="163" y="79"/>
      <point x="160" y="274" type="curve"/>
    </contour>
    <contour>
      <point x="20" y="303"/>
      <point x="53" y="273"/>
      <point x="118" y="273" type="curve" smooth="yes"/>
      <point x="159" y="273" type="line"/>
      <point x="159" y="275" type="line"/>
      <point x="118" y="275" type="line" smooth="yes"/>
      <point x="54" y="275"/>
      <point x="22" y="304"/>
      <point x="22" y="357" type="curve" smooth="yes"/>
      <point x="22" y="392"/>
      <point x="34" y="413"/>
      <point x="50" y="435" type="curve"/>
      <point x="48" y="436" type="line"/>
      <point x="33" y="415"/>
      <point x="20" y="393"/>
      <point x="20" y="357" type="curve" smooth="yes"/>
    </contour>
    <contour>
      <point x="437" y="0" type="move" name="ogonek"/>
    </contour>
    <contour>
      <point x="327" y="0" type="move" name="bottom"/>
    </contour>
    <contour>
      <point x="327" y="557" type="move" name="top"/>
    </contour>
  </outline>
</glyph>
<glyph name="uni0505.sc" format="1">
  <advance width="658"/>
  <outline>
    <contour>
      <point x="571" y="312" type="line"/>
      <point x="574" y="282"/>
      <point x="576" y="252"/>
      <point x="576" y="220" type="curve" smooth="yes"/>
      <point x="576" y="59"/>
      <point x="525" y="-5"/>
      <point x="446" y="-5" type="curve" smooth="yes"/>
      <point x="382" y="-5"/>
      <point x="347" y="31"/>
      <point x="290" y="125" type="curve" smooth="yes"/>
      <point x="200" y="275" type="line"/>
      <point x="198" y="275" type="line"/>
      <point x="288" y="125" type="line" smooth="yes"/>
      <point x="346" y="30"/>
      <point x="381" y="-7"/>
      <point x="446" y="-7" type="curve" smooth="yes"/>
      <point x="526" y="-7"/>
      <point x="578" y="58"/>
      <point x="578" y="220" type="curve" smooth="yes"/>
      <point x="578" y="252"/>
      <point x="576" y="282"/>
      <point x="573" y="312" type="curve"/>
    </contour>
    <contour>
      <point x="60" y="557" type="line"/>
      <point x="60" y="555" type="line"/>
      <point x="159" y="555" type="line" smooth="yes"/>
      <point x="297" y="555"/>
      <point x="344" y="500"/>
      <point x="344" y="415" type="curve" smooth="yes"/>
      <point x="344" y="314"/>
      <point x="268" y="276"/>
      <point x="193" y="276" type="curve" smooth="yes"/>
      <point x="87" y="276" type="line"/>
      <point x="87" y="274" type="line"/>
      <point x="199" y="274" type="line"/>
      <point x="270" y="276"/>
      <point x="346" y="313"/>
      <point x="346" y="415" type="curve" smooth="yes"/>
      <point x="346" y="501"/>
      <point x="298" y="557"/>
      <point x="159" y="557" type="curve" smooth="yes"/>
    </contour>
    <contour>
      <point x="319" y="557" type="move" name="top"/>
    </contour>
    <contour>
      <point x="319" y="0" type="move" name="bottom"/>
    </contour>
  </outline>
</glyph>
<glyph name="uni0507.sc" format="1">
  <advance width="403"/>
  <outline>
    <contour>
      <point x="199" y="274" type="line"/>
      <point x="270" y="276"/>
      <point x="346" y="313"/>
      <point x="346" y="415" type="curve" smooth="yes"/>
      <point x="346" y="501"/>
      <point x="298" y="557"/>
      <point x="159" y="557" type="curve" smooth="yes"/>
      <point x="60" y="557" type="line"/>
      <point x="60" y="555" type="line"/>
      <point x="159" y="555" type="line" smooth="yes"/>
      <point x="297" y="555"/>
      <point x="344" y="500"/>
      <point x="344" y="415" type="curve" smooth="yes"/>
      <point x="344" y="314"/>
      <point x="268" y="276"/>
      <point x="193" y="276" type="curve" smooth="yes"/>
      <point x="87" y="276" type="line"/>
      <point x="87" y="274" type="line"/>
    </contour>
    <contour>
      <point x="366" y="0" type="line"/>
      <point x="200" y="275" type="line"/>
      <point x="198" y="275" type="line"/>
      <point x="363" y="0" type="line"/>
    </contour>
    <component base="descStraightcy.case" xOffset="355"/>
    <contour>
      <point x="198" y="557" type="move" name="top"/>
    </contour>
    <contour>
      <point x="198" y="-188" type="move" name="bottom"/>
    </contour>
  </outline>
</glyph>
<glyph name="uni052B.sc" format="1">
  <advance width="725"/>
  <outline>
    <contour>
      <point x="435" y="0" type="line"/>
      <point x="435" y="294" type="line"/>
      <point x="514" y="294" type="line"/>
      <point x="688" y="0" type="line"/>
      <point x="690" y="0" type="line"/>
      <point x="516" y="295" type="line"/>
      <point x="675" y="557" type="line"/>
      <point x="673" y="557" type="line"/>
      <point x="514" y="296" type="line"/>
      <point x="435" y="296" type="line"/>
      <point x="435" y="557" type="line"/>
      <point x="433" y="557" type="line"/>
      <point x="433" y="0" type="line"/>
    </contour>
    <contour>
      <point x="334" y="0" type="line"/>
      <point x="334" y="557" type="line"/>
      <point x="167" y="557" type="line"/>
      <point x="132" y="288" type="line" smooth="yes"/>
      <point x="105" y="77"/>
      <point x="84" y="36"/>
      <point x="35" y="2" type="curve"/>
      <point x="38" y="2" type="line"/>
      <point x="86" y="36"/>
      <point x="106" y="78"/>
      <point x="134" y="288" type="curve" smooth="yes"/>
      <point x="169" y="555" type="line"/>
      <point x="332" y="555" type="line"/>
      <point x="332" y="2" type="line"/>
      <point x="34" y="2" type="line"/>
      <point x="34" y="0" type="line"/>
    </contour>
    <contour>
      <point x="434" y="0" type="line"/>
      <point x="434" y="2" type="line"/>
      <point x="333" y="2" type="line"/>
      <point x="333" y="0" type="line"/>
    </contour>
    <contour>
      <point x="434" y="294" type="line"/>
      <point x="434" y="296" type="line"/>
      <point x="333" y="296" type="line"/>
      <point x="333" y="294" type="line"/>
    </contour>
    <component base="descStraightcy" xOffset="65" xScale="-1"/>
    <component base="descStraightcy" xOffset="310"/>
    <contour>
      <point x="363" y="557" type="move" name="top"/>
    </contour>
    <contour>
      <point x="363" y="-188" type="move" name="bottom"/>
    </contour>
  </outline>
</glyph>
<glyph name="uni0E3F.tf" format="1">
  <advance width="560"/>
  <outline>
    <contour>
      <point x="260" y="1" type="line"/>
      <point x="260" y="-144" type="line"/>
      <point x="262" y="-144" type="line"/>
      <point x="262" y="1" type="line"/>
    </contour>
    <contour>
      <point x="265" y="805" type="line"/>
      <point x="265" y="678" type="line"/>
      <point x="267" y="678" type="line"/>
      <point x="267" y="805" type="line"/>
    </contour>
    <contour>
      <point x="102" y="680" type="line"/>
      <point x="102" y="0" type="line"/>
      <point x="254" y="0" type="line" smooth="yes"/>
      <point x="380" y="0"/>
      <point x="477" y="45"/>
      <point x="477" y="183" type="curve" smooth="yes"/>
      <point x="477" y="295"/>
      <point x="395" y="354"/>
      <point x="300" y="359" type="curve"/>
      <point x="378" y="369"/>
      <point x="439" y="425"/>
      <point x="440" y="513" type="curve" smooth="yes"/>
      <point x="441" y="620"/>
      <point x="367" y="680"/>
      <point x="232" y="680" type="curve" smooth="yes"/>
    </contour>
    <contour>
      <point x="367" y="678"/>
      <point x="438" y="618"/>
      <point x="438" y="513" type="curve" smooth="yes"/>
      <point x="438" y="426"/>
      <point x="372" y="360"/>
      <point x="279" y="360" type="curve" smooth="yes"/>
      <point x="103" y="360" type="line"/>
      <point x="103" y="358" type="line"/>
      <point x="283" y="358" type="line" smooth="yes"/>
      <point x="393" y="358"/>
      <point x="475" y="293"/>
      <point x="475" y="183" type="curve" smooth="yes"/>
      <point x="475" y="45"/>
      <point x="379" y="2"/>
      <point x="255" y="2" type="curve" smooth="yes"/>
      <point x="104" y="2" type="line"/>
      <point x="104" y="678" type="line"/>
      <point x="233" y="678" type="line" smooth="yes"/>
    </contour>
  </outline>
</glyph>
<glyph name="uni0E3F.tosf" format="1">
  <advance width="560"/>
  <outline>
    <contour>
      <point x="260" y="1" type="line"/>
      <point x="260" y="-144" type="line"/>
      <point x="262" y="-144" type="line"/>
      <point x="262" y="1" type="line"/>
    </contour>
    <contour>
      <point x="265" y="805" type="line"/>
      <point x="265" y="658" type="line"/>
      <point x="267" y="658" type="line"/>
      <point x="267" y="805" type="line"/>
    </contour>
    <contour>
      <point x="102" y="660" type="line"/>
      <point x="102" y="0" type="line"/>
      <point x="254" y="0" type="line" smooth="yes"/>
      <point x="380" y="0"/>
      <point x="477" y="45"/>
      <point x="477" y="178" type="curve" smooth="yes"/>
      <point x="477" y="285"/>
      <point x="395" y="344"/>
      <point x="300" y="349" type="curve"/>
      <point x="378" y="359"/>
      <point x="439" y="415"/>
      <point x="440" y="498" type="curve" smooth="yes"/>
      <point x="441" y="600"/>
      <point x="367" y="660"/>
      <point x="232" y="660" type="curve" smooth="yes"/>
    </contour>
    <contour>
      <point x="367" y="658"/>
      <point x="438" y="598"/>
      <point x="438" y="498" type="curve" smooth="yes"/>
      <point x="438" y="416"/>
      <point x="372" y="350"/>
      <point x="279" y="350" type="curve" smooth="yes"/>
      <point x="103" y="350" type="line"/>
      <point x="103" y="348" type="line"/>
      <point x="283" y="348" type="line" smooth="yes"/>
      <point x="393" y="348"/>
      <point x="475" y="283"/>
      <point x="475" y="178" type="curve" smooth="yes"/>
      <point x="475" y="45"/>
      <point x="379" y="2"/>
      <point x="255" y="2" type="curve" smooth="yes"/>
      <point x="104" y="2" type="line"/>
      <point x="104" y="658" type="line"/>
      <point x="233" y="658" type="line" smooth="yes"/>
    </contour>
  </outline>
</glyph>
<glyph name="uni1FCF.case" format="1">
  <advance width="303"/>
  <outline>
    <contour>
      <point x="145" y="530" type="line"/>
      <point x="160" y="600" type="line" smooth="yes"/>
      <point x="161" y="605"/>
      <point x="161" y="606"/>
      <point x="161" y="608" type="curve"/>
      <point x="161" y="611"/>
      <point x="159" y="613"/>
      <point x="156" y="613" type="curve" smooth="yes"/>
      <point x="153" y="613"/>
      <point x="151" y="611"/>
      <point x="151" y="608" type="curve" smooth="yes"/>
      <point x="151" y="605"/>
      <point x="153" y="603"/>
      <point x="157" y="603" type="curve"/>
      <point x="143" y="530" type="line"/>
    </contour>
    <component base="uni1FC0" yOffset="-47"/>
    <contour>
      <point x="244" y="680" type="move" name="_topleft"/>
    </contour>
    <contour>
      <point x="154" y="685" type="move" name="top"/>
    </contour>
  </outline>
</glyph>
<glyph name="uni1FDF.case" format="1">
  <advance width="303"/>
  <outline>
    <contour>
      <point x="147" y="603" type="line"/>
      <point x="151" y="603"/>
      <point x="153" y="605"/>
      <point x="153" y="608" type="curve" smooth="yes"/>
      <point x="153" y="611"/>
      <point x="151" y="613"/>
      <point x="148" y="613" type="curve" smooth="yes"/>
      <point x="145" y="613"/>
      <point x="143" y="611"/>
      <point x="143" y="608" type="curve"/>
      <point x="143" y="606"/>
      <point x="143" y="605"/>
      <point x="144" y="600" type="curve" smooth="yes"/>
      <point x="159" y="530" type="line"/>
      <point x="161" y="530" type="line"/>
    </contour>
    <component base="uni1FC0" yOffset="-47"/>
    <contour>
      <point x="254" y="680" type="move" name="_topleft"/>
    </contour>
    <contour>
      <point x="154" y="685" type="move" name="top"/>
    </contour>
  </outline>
</glyph>
<glyph name="uni1FEF.case" format="1">
  <advance width="95"/>
  <outline>
    <contour>
      <point x="30" y="680" type="line"/>
      <point x="63" y="562" type="line"/>
      <point x="65" y="562" type="line"/>
      <point x="32" y="680" type="line"/>
    </contour>
    <contour>
      <point x="72" y="680" type="move" name="_topleft"/>
    </contour>
  </outline>
</glyph>
<glyph name="uni20A6.tf" format="1">
  <advance width="560"/>
  <outline>
    <contour>
      <point x="28" y="301" type="line"/>
      <point x="28" y="299" type="line"/>
      <point x="532" y="299" type="line"/>
      <point x="532" y="301" type="line"/>
    </contour>
    <contour>
      <point x="28" y="395" type="line"/>
      <point x="28" y="393" type="line"/>
      <point x="532" y="393" type="line"/>
      <point x="532" y="395" type="line"/>
    </contour>
    <contour>
      <point x="469" y="680" type="line"/>
      <point x="469" y="132" type="line"/>
      <point x="469" y="92"/>
      <point x="469" y="42"/>
      <point x="469" y="2" type="curve"/>
      <point x="92" y="680" type="line"/>
      <point x="89" y="680" type="line"/>
      <point x="89" y="0" type="line"/>
      <point x="91" y="0" type="line"/>
      <point x="91" y="578" type="line"/>
      <point x="91" y="623"/>
      <point x="91" y="655"/>
      <point x="91" y="678" type="curve"/>
      <point x="468" y="0" type="line"/>
      <point x="471" y="0" type="line"/>
      <point x="471" y="680" type="line"/>
    </contour>
  </outline>
</glyph>
<glyph name="uni20A9.tf" format="1">
  <advance width="900"/>
  <outline>
    <contour>
      <point x="138" y="301" type="line"/>
      <point x="138" y="299" type="line"/>
      <point x="782" y="299" type="line"/>
      <point x="782" y="301" type="line"/>
    </contour>
    <contour>
      <point x="138" y="395" type="line"/>
      <point x="138" y="393" type="line"/>
      <point x="782" y="393" type="line"/>
      <point x="782" y="395" type="line"/>
    </contour>
    <contour>
      <point x="780" y="680" type="line"/>
      <point x="626" y="3" type="line"/>
      <point x="450" y="680" type="line"/>
      <point x="448" y="680" type="line"/>
      <point x="273" y="2" type="line"/>
      <point x="119" y="680" type="line"/>
      <point x="117" y="680" type="line"/>
      <point x="272" y="0" type="line"/>
      <point x="274" y="0" type="line"/>
      <point x="449" y="678" type="line"/>
      <point x="625" y="0" type="line"/>
      <point x="627" y="0" type="line"/>
      <point x="782" y="680" type="line"/>
    </contour>
  </outline>
</glyph>
<glyph name="uni20A9.tosf" format="1">
  <advance width="900"/>
  <outline>
    <contour>
      <point x="138" y="291" type="line"/>
      <point x="138" y="289" type="line"/>
      <point x="782" y="289" type="line"/>
      <point x="782" y="291" type="line"/>
    </contour>
    <contour>
      <point x="138" y="385" type="line"/>
      <point x="138" y="383" type="line"/>
      <point x="782" y="383" type="line"/>
      <point x="782" y="385" type="line"/>
    </contour>
    <contour>
      <point x="780" y="660" type="line"/>
      <point x="626" y="3" type="line"/>
      <point x="450" y="660" type="line"/>
      <point x="448" y="660" type="line"/>
      <point x="273" y="2" type="line"/>
      <point x="119" y="660" type="line"/>
      <point x="117" y="660" type="line"/>
      <point x="272" y="0" type="line"/>
      <point x="274" y="0" type="line"/>
      <point x="449" y="658" type="line"/>
      <point x="625" y="0" type="line"/>
      <point x="627" y="0" type="line"/>
      <point x="782" y="660" type="line"/>
    </contour>
  </outline>
</glyph>
<glyph name="uni20B4.tf" format="1">
  <advance width="560"/>
  <outline>
    <contour>
      <point x="206" y="692"/>
      <point x="159" y="665"/>
      <point x="118" y="630" type="curve"/>
      <point x="119" y="628" type="line"/>
      <point x="160" y="664"/>
      <point x="208" y="690"/>
      <point x="290" y="690" type="curve" smooth="yes"/>
      <point x="389" y="690"/>
      <point x="455" y="626"/>
      <point x="455" y="538" type="curve" smooth="yes"/>
      <point x="455" y="446"/>
      <point x="414" y="412"/>
      <point x="280" y="369" type="curve" smooth="yes"/>
      <point x="155" y="329"/>
      <point x="96" y="289"/>
      <point x="96" y="178" type="curve" smooth="yes"/>
      <point x="96" y="66"/>
      <point x="173" y="-9"/>
      <point x="290" y="-9" type="curve" smooth="yes"/>
      <point x="379" y="-9"/>
      <point x="432" y="21"/>
      <point x="479" y="67" type="curve"/>
      <point x="478" y="69" type="line"/>
      <point x="431" y="23"/>
      <point x="379" y="-7"/>
      <point x="290" y="-7" type="curve" smooth="yes"/>
      <point x="175" y="-7"/>
      <point x="98" y="67"/>
      <point x="98" y="178" type="curve" smooth="yes"/>
      <point x="98" y="288"/>
      <point x="157" y="327"/>
      <point x="281" y="367" type="curve" smooth="yes"/>
      <point x="414" y="410"/>
      <point x="457" y="444"/>
      <point x="457" y="538" type="curve" smooth="yes"/>
      <point x="457" y="628"/>
      <point x="390" y="692"/>
      <point x="290" y="692" type="curve" smooth="yes"/>
    </contour>
    <contour>
      <point x="81" y="291" type="line"/>
      <point x="81" y="289" type="line"/>
      <point x="451" y="289" type="line"/>
      <point x="451" y="291" type="line"/>
    </contour>
    <contour>
      <point x="81" y="385" type="line"/>
      <point x="81" y="383" type="line"/>
      <point x="451" y="383" type="line"/>
      <point x="451" y="385" type="line"/>
    </contour>
  </outline>
</glyph>
<glyph name="uni20B4.tosf" format="1">
  <advance width="560"/>
  <outline>
    <contour>
      <point x="206" y="670"/>
      <point x="159" y="643"/>
      <point x="118" y="608" type="curve"/>
      <point x="119" y="606" type="line"/>
      <point x="160" y="642"/>
      <point x="208" y="668"/>
      <point x="290" y="668" type="curve" smooth="yes"/>
      <point x="389" y="668"/>
      <point x="455" y="604"/>
      <point x="455" y="522" type="curve" smooth="yes"/>
      <point x="455" y="436"/>
      <point x="414" y="402"/>
      <point x="280" y="359" type="curve" smooth="yes"/>
      <point x="155" y="319"/>
      <point x="96" y="279"/>
      <point x="96" y="173" type="curve" smooth="yes"/>
      <point x="96" y="66"/>
      <point x="173" y="-9"/>
      <point x="290" y="-9" type="curve" smooth="yes"/>
      <point x="379" y="-9"/>
      <point x="432" y="21"/>
      <point x="479" y="67" type="curve"/>
      <point x="478" y="69" type="line"/>
      <point x="431" y="23"/>
      <point x="379" y="-7"/>
      <point x="290" y="-7" type="curve" smooth="yes"/>
      <point x="175" y="-7"/>
      <point x="98" y="67"/>
      <point x="98" y="173" type="curve" smooth="yes"/>
      <point x="98" y="278"/>
      <point x="157" y="317"/>
      <point x="281" y="357" type="curve" smooth="yes"/>
      <point x="414" y="400"/>
      <point x="457" y="434"/>
      <point x="457" y="522" type="curve" smooth="yes"/>
      <point x="457" y="606"/>
      <point x="390" y="670"/>
      <point x="290" y="670" type="curve" smooth="yes"/>
    </contour>
    <contour>
      <point x="81" y="291" type="line"/>
      <point x="81" y="289" type="line"/>
      <point x="451" y="289" type="line"/>
      <point x="451" y="291" type="line"/>
    </contour>
    <contour>
      <point x="81" y="385" type="line"/>
      <point x="81" y="383" type="line"/>
      <point x="451" y="383" type="line"/>
      <point x="451" y="385" type="line"/>
    </contour>
  </outline>
</glyph>
<glyph name="uni20B9.tf" format="1">
  <advance width="560"/>
  <outline>
    <contour>
      <point x="436" y="0" type="line"/>
      <point x="243" y="325" type="line"/>
      <point x="241" y="325" type="line"/>
      <point x="433" y="0" type="line"/>
    </contour>
    <contour>
      <point x="494" y="544" type="line"/>
      <point x="494" y="546" type="line"/>
      <point x="122" y="546" type="line"/>
      <point x="122" y="544" type="line"/>
    </contour>
    <contour>
      <point x="122" y="680" type="line"/>
      <point x="122" y="678" type="line"/>
      <point x="197" y="678" type="line" smooth="yes"/>
      <point x="356" y="678"/>
      <point x="410" y="611"/>
      <point x="410" y="501" type="curve" smooth="yes"/>
      <point x="410" y="373"/>
      <point x="322" y="326"/>
      <point x="236" y="326" type="curve" smooth="yes"/>
      <point x="121" y="326" type="line"/>
      <point x="121" y="324" type="line"/>
      <point x="242" y="324" type="line" smooth="yes"/>
      <point x="323" y="326"/>
      <point x="412" y="372"/>
      <point x="412" y="501" type="curve" smooth="yes"/>
      <point x="412" y="602"/>
      <point x="367" y="668"/>
      <point x="238" y="678" type="curve"/>
      <point x="494" y="678" type="line"/>
      <point x="494" y="680" type="line"/>
    </contour>
  </outline>
</glyph>
<glyph name="uni20B9.tosf" format="1">
  <advance width="560"/>
  <outline>
    <contour>
      <point x="436" y="0" type="line"/>
      <point x="243" y="305" type="line"/>
      <point x="241" y="305" type="line"/>
      <point x="433" y="0" type="line"/>
    </contour>
    <contour>
      <point x="494" y="524" type="line"/>
      <point x="494" y="526" type="line"/>
      <point x="122" y="526" type="line"/>
      <point x="122" y="524" type="line"/>
    </contour>
    <contour>
      <point x="122" y="660" type="line"/>
      <point x="122" y="658" type="line"/>
      <point x="197" y="658" type="line" smooth="yes"/>
      <point x="356" y="658"/>
      <point x="410" y="591"/>
      <point x="410" y="481" type="curve" smooth="yes"/>
      <point x="410" y="353"/>
      <point x="322" y="306"/>
      <point x="236" y="306" type="curve" smooth="yes"/>
      <point x="121" y="306" type="line"/>
      <point x="121" y="304" type="line"/>
      <point x="242" y="304" type="line" smooth="yes"/>
      <point x="323" y="304"/>
      <point x="412" y="352"/>
      <point x="412" y="481" type="curve" smooth="yes"/>
      <point x="412" y="582"/>
      <point x="367" y="648"/>
      <point x="238" y="658" type="curve"/>
      <point x="494" y="658" type="line"/>
      <point x="494" y="660" type="line"/>
    </contour>
  </outline>
</glyph>
<glyph name="uni20BA.tosf" format="1">
  <advance width="560"/>
  <outline>
    <contour>
      <point x="179" y="660" type="line"/>
      <point x="181" y="660" type="line"/>
      <point x="181" y="1" type="line"/>
      <point x="267" y="1" type="line"/>
      <point x="394" y="1"/>
      <point x="449" y="46"/>
      <point x="487" y="133" type="curve"/>
      <point x="489" y="133" type="line"/>
      <point x="450" y="44"/>
      <point x="395" y="-1"/>
      <point x="267" y="-1" type="curve"/>
      <point x="179" y="-1" type="line"/>
    </contour>
    <contour>
      <point x="115" y="227" type="line"/>
      <point x="359" y="341" type="line"/>
      <point x="360" y="339" type="line"/>
      <point x="116" y="225" type="line"/>
    </contour>
    <contour>
      <point x="115" y="342" type="line"/>
      <point x="359" y="456" type="line" smooth="yes"/>
      <point x="360" y="454" type="line"/>
      <point x="116" y="340" type="line"/>
    </contour>
  </outline>
</glyph>
<glyph name="uni20BD.tosf" format="1">
  <advance width="560"/>
  <outline>
    <contour>
      <point x="161" y="658" type="line"/>
      <point x="251" y="658" type="line" smooth="yes"/>
      <point x="399" y="658"/>
      <point x="474" y="601"/>
      <point x="474" y="475" type="curve" smooth="yes"/>
      <point x="474" y="347"/>
      <point x="383" y="293"/>
      <point x="248" y="293" type="curve" smooth="yes"/>
      <point x="160" y="293" type="line"/>
      <point x="160" y="291" type="line"/>
      <point x="248" y="291" type="line" smooth="yes"/>
      <point x="385" y="291"/>
      <point x="476" y="346"/>
      <point x="476" y="475" type="curve" smooth="yes"/>
      <point x="476" y="602"/>
      <point x="400" y="660"/>
      <point x="251" y="660" type="curve" smooth="yes"/>
      <point x="159" y="660" type="line"/>
      <point x="159" y="0" type="line"/>
      <point x="161" y="0" type="line"/>
    </contour>
    <contour>
      <point x="75" y="159" type="line"/>
      <point x="75" y="157" type="line"/>
      <point x="307" y="157" type="line"/>
      <point x="307" y="159" type="line"/>
    </contour>
    <contour>
      <point x="75" y="293" type="line"/>
      <point x="75" y="291" type="line"/>
      <point x="207" y="291" type="line"/>
      <point x="207" y="293" type="line"/>
    </contour>
  </outline>
</glyph>
<glyph name="uniA7B2.sc" format="1">
  <advance width="277"/>
  <outline>
    <contour>
      <point x="109" y="-192"/>
      <point x="147" y="-135"/>
      <point x="147" y="-33" type="curve" smooth="yes"/>
      <point x="147" y="557" type="line"/>
      <point x="145" y="557" type="line"/>
      <point x="145" y="-33" type="line" smooth="yes"/>
      <point x="145" y="-134"/>
      <point x="108" y="-190"/>
      <point x="30" y="-190" type="curve" smooth="yes"/>
      <point x="-28" y="-190"/>
      <point x="-63" y="-157"/>
      <point x="-63" y="-111" type="curve" smooth="yes"/>
      <point x="-63" y="-56"/>
      <point x="-20" y="-21"/>
      <point x="47" y="-21" type="curve" smooth="yes"/>
      <point x="88" y="-21"/>
      <point x="117" y="-26"/>
      <point x="146" y="-34" type="curve"/>
      <point x="146" y="-32" type="line"/>
      <point x="117" y="-24"/>
      <point x="88" y="-19"/>
      <point x="47" y="-19" type="curve" smooth="yes"/>
      <point x="-21" y="-19"/>
      <point x="-65" y="-54"/>
      <point x="-65" y="-111" type="curve" smooth="yes"/>
      <point x="-65" y="-158"/>
      <point x="-29" y="-192"/>
      <point x="30" y="-192" type="curve" smooth="yes"/>
    </contour>
    <contour>
      <point x="223" y="-62" type="line"/>
      <point x="195" y="-48"/>
      <point x="173" y="-40"/>
      <point x="146" y="-32" type="curve"/>
      <point x="146" y="-34" type="line"/>
      <point x="173" y="-42"/>
      <point x="195" y="-50"/>
      <point x="223" y="-64" type="curve"/>
    </contour>
    <contour>
      <point x="146" y="557" type="move" name="top"/>
    </contour>
    <contour>
      <point x="134" y="-188" type="move" name="bottom"/>
    </contour>
  </outline>
</glyph>
<glyph name="xi.sc" format="1">
  <advance width="427"/>
  <outline>
    <contour>
      <point x="60" y="2" type="line"/>
      <point x="60" y="0" type="line"/>
      <point x="367" y="0" type="line"/>
      <point x="367" y="2" type="line"/>
    </contour>
    <contour>
      <point x="107" y="297" type="line"/>
      <point x="107" y="295" type="line"/>
      <point x="322" y="295" type="line"/>
      <point x="322" y="297" type="line"/>
    </contour>
    <contour>
      <point x="60" y="557" type="line"/>
      <point x="60" y="555" type="line"/>
      <point x="360" y="555" type="line"/>
      <point x="360" y="557" type="line"/>
    </contour>
    <contour>
      <point x="219" y="557" type="move" name="top"/>
    </contour>
    <contour>
      <point x="219" y="0" type="move" name="bottom"/>
    </contour>
  </outline>
</glyph>
